%TF.GenerationSoftware,KiCad,Pcbnew,9.0.0*%
%TF.CreationDate,2025-03-13T15:17:37+10:00*%
%TF.ProjectId,Version 1,56657273-696f-46e2-9031-2e6b69636164,rev?*%
%TF.SameCoordinates,Original*%
%TF.FileFunction,Soldermask,Top*%
%TF.FilePolarity,Negative*%
%FSLAX46Y46*%
G04 Gerber Fmt 4.6, Leading zero omitted, Abs format (unit mm)*
G04 Created by KiCad (PCBNEW 9.0.0) date 2025-03-13 15:17:37*
%MOMM*%
%LPD*%
G01*
G04 APERTURE LIST*
G04 Aperture macros list*
%AMRoundRect*
0 Rectangle with rounded corners*
0 $1 Rounding radius*
0 $2 $3 $4 $5 $6 $7 $8 $9 X,Y pos of 4 corners*
0 Add a 4 corners polygon primitive as box body*
4,1,4,$2,$3,$4,$5,$6,$7,$8,$9,$2,$3,0*
0 Add four circle primitives for the rounded corners*
1,1,$1+$1,$2,$3*
1,1,$1+$1,$4,$5*
1,1,$1+$1,$6,$7*
1,1,$1+$1,$8,$9*
0 Add four rect primitives between the rounded corners*
20,1,$1+$1,$2,$3,$4,$5,0*
20,1,$1+$1,$4,$5,$6,$7,0*
20,1,$1+$1,$6,$7,$8,$9,0*
20,1,$1+$1,$8,$9,$2,$3,0*%
G04 Aperture macros list end*
%ADD10C,0.010000*%
%ADD11O,1.700000X1.700000*%
%ADD12C,3.200000*%
%ADD13O,2.304000X1.204000*%
%ADD14O,2.004000X1.204000*%
%ADD15RoundRect,0.250000X-0.350000X-0.450000X0.350000X-0.450000X0.350000X0.450000X-0.350000X0.450000X0*%
%ADD16C,3.000000*%
%ADD17RoundRect,0.200000X-0.200000X-0.800000X0.200000X-0.800000X0.200000X0.800000X-0.200000X0.800000X0*%
%ADD18RoundRect,0.250000X0.337500X0.475000X-0.337500X0.475000X-0.337500X-0.475000X0.337500X-0.475000X0*%
%ADD19RoundRect,0.250000X0.325000X0.450000X-0.325000X0.450000X-0.325000X-0.450000X0.325000X-0.450000X0*%
%ADD20RoundRect,0.375000X-0.625000X-0.375000X0.625000X-0.375000X0.625000X0.375000X-0.625000X0.375000X0*%
%ADD21RoundRect,0.500000X-0.500000X-1.400000X0.500000X-1.400000X0.500000X1.400000X-0.500000X1.400000X0*%
%ADD22RoundRect,0.250000X0.350000X0.450000X-0.350000X0.450000X-0.350000X-0.450000X0.350000X-0.450000X0*%
%ADD23R,1.500000X0.900000*%
%ADD24R,0.900000X1.500000*%
%ADD25C,0.600000*%
%ADD26R,3.900000X3.900000*%
%ADD27R,1.700000X1.700000*%
G04 APERTURE END LIST*
D10*
%TO.C,J1*%
X22880000Y-64150000D02*
X21630000Y-64150000D01*
X21630000Y-63450000D01*
X22880000Y-63450000D01*
X22880000Y-64150000D01*
G36*
X22880000Y-64150000D02*
G01*
X21630000Y-64150000D01*
X21630000Y-63450000D01*
X22880000Y-63450000D01*
X22880000Y-64150000D01*
G37*
X22880000Y-64950000D02*
X21630000Y-64950000D01*
X21630000Y-64250000D01*
X22880000Y-64250000D01*
X22880000Y-64950000D01*
G36*
X22880000Y-64950000D02*
G01*
X21630000Y-64950000D01*
X21630000Y-64250000D01*
X22880000Y-64250000D01*
X22880000Y-64950000D01*
G37*
X22880000Y-65450000D02*
X21630000Y-65450000D01*
X21630000Y-65050000D01*
X22880000Y-65050000D01*
X22880000Y-65450000D01*
G36*
X22880000Y-65450000D02*
G01*
X21630000Y-65450000D01*
X21630000Y-65050000D01*
X22880000Y-65050000D01*
X22880000Y-65450000D01*
G37*
X22880000Y-65950000D02*
X21630000Y-65950000D01*
X21630000Y-65550000D01*
X22880000Y-65550000D01*
X22880000Y-65950000D01*
G36*
X22880000Y-65950000D02*
G01*
X21630000Y-65950000D01*
X21630000Y-65550000D01*
X22880000Y-65550000D01*
X22880000Y-65950000D01*
G37*
X22880000Y-66450000D02*
X21630000Y-66450000D01*
X21630000Y-66050000D01*
X22880000Y-66050000D01*
X22880000Y-66450000D01*
G36*
X22880000Y-66450000D02*
G01*
X21630000Y-66450000D01*
X21630000Y-66050000D01*
X22880000Y-66050000D01*
X22880000Y-66450000D01*
G37*
X22880000Y-66950000D02*
X21630000Y-66950000D01*
X21630000Y-66550000D01*
X22880000Y-66550000D01*
X22880000Y-66950000D01*
G36*
X22880000Y-66950000D02*
G01*
X21630000Y-66950000D01*
X21630000Y-66550000D01*
X22880000Y-66550000D01*
X22880000Y-66950000D01*
G37*
X22880000Y-67450000D02*
X21630000Y-67450000D01*
X21630000Y-67050000D01*
X22880000Y-67050000D01*
X22880000Y-67450000D01*
G36*
X22880000Y-67450000D02*
G01*
X21630000Y-67450000D01*
X21630000Y-67050000D01*
X22880000Y-67050000D01*
X22880000Y-67450000D01*
G37*
X22880000Y-67950000D02*
X21630000Y-67950000D01*
X21630000Y-67550000D01*
X22880000Y-67550000D01*
X22880000Y-67950000D01*
G36*
X22880000Y-67950000D02*
G01*
X21630000Y-67950000D01*
X21630000Y-67550000D01*
X22880000Y-67550000D01*
X22880000Y-67950000D01*
G37*
X22880000Y-68450000D02*
X21630000Y-68450000D01*
X21630000Y-68050000D01*
X22880000Y-68050000D01*
X22880000Y-68450000D01*
G36*
X22880000Y-68450000D02*
G01*
X21630000Y-68450000D01*
X21630000Y-68050000D01*
X22880000Y-68050000D01*
X22880000Y-68450000D01*
G37*
X22880000Y-68950000D02*
X21630000Y-68950000D01*
X21630000Y-68550000D01*
X22880000Y-68550000D01*
X22880000Y-68950000D01*
G36*
X22880000Y-68950000D02*
G01*
X21630000Y-68950000D01*
X21630000Y-68550000D01*
X22880000Y-68550000D01*
X22880000Y-68950000D01*
G37*
X22880000Y-69750000D02*
X21630000Y-69750000D01*
X21630000Y-69050000D01*
X22880000Y-69050000D01*
X22880000Y-69750000D01*
G36*
X22880000Y-69750000D02*
G01*
X21630000Y-69750000D01*
X21630000Y-69050000D01*
X22880000Y-69050000D01*
X22880000Y-69750000D01*
G37*
X22880000Y-70550000D02*
X21630000Y-70550000D01*
X21630000Y-69850000D01*
X22880000Y-69850000D01*
X22880000Y-70550000D01*
G36*
X22880000Y-70550000D02*
G01*
X21630000Y-70550000D01*
X21630000Y-69850000D01*
X22880000Y-69850000D01*
X22880000Y-70550000D01*
G37*
%TD*%
D11*
%TO.C,J3*%
X62000000Y-18460000D03*
X62000000Y-21000000D03*
X59460000Y-18460000D03*
X59460000Y-21000000D03*
X56920000Y-18460000D03*
X56920000Y-21000000D03*
X54380000Y-18460000D03*
X54380000Y-21000000D03*
X51840000Y-18460000D03*
X51840000Y-21000000D03*
%TD*%
D12*
%TO.C,H2*%
X20000000Y-20000000D03*
%TD*%
D13*
%TO.C,J1*%
X21680000Y-62680000D03*
X21680000Y-71320000D03*
D14*
X17500000Y-62680000D03*
X17500000Y-71320000D03*
%TD*%
D15*
%TO.C,R1*%
X26500000Y-79000000D03*
X28500000Y-79000000D03*
%TD*%
D16*
%TO.C,TP2*%
X19000000Y-50000000D03*
%TD*%
%TO.C,TP1*%
X19000000Y-44000000D03*
%TD*%
D17*
%TO.C,SW1*%
X17400000Y-36500000D03*
X21600000Y-36500000D03*
%TD*%
D18*
%TO.C,C4*%
X28537500Y-70000000D03*
X26462500Y-70000000D03*
%TD*%
D19*
%TO.C,D1*%
X28525000Y-73000000D03*
X26475000Y-73000000D03*
%TD*%
D12*
%TO.C,H1*%
X69000000Y-20000000D03*
%TD*%
D18*
%TO.C,C2*%
X28537500Y-67000000D03*
X26462500Y-67000000D03*
%TD*%
D16*
%TO.C,TP3*%
X19000000Y-56000000D03*
%TD*%
D20*
%TO.C,U2*%
X23350000Y-45200000D03*
X23350000Y-47500000D03*
D21*
X29650000Y-47500000D03*
D20*
X23350000Y-49800000D03*
%TD*%
D17*
%TO.C,SW2*%
X17400000Y-28000000D03*
X21600000Y-28000000D03*
%TD*%
D22*
%TO.C,R2*%
X28500000Y-76000000D03*
X26500000Y-76000000D03*
%TD*%
D23*
%TO.C,U1*%
X29000000Y-22460000D03*
X29000000Y-23730000D03*
X29000000Y-25000000D03*
X29000000Y-26270000D03*
X29000000Y-27540000D03*
X29000000Y-28810000D03*
X29000000Y-30080000D03*
X29000000Y-31350000D03*
X29000000Y-32620000D03*
X29000000Y-33890000D03*
X29000000Y-35160000D03*
X29000000Y-36430000D03*
X29000000Y-37700000D03*
X29000000Y-38970000D03*
D24*
X30765000Y-40220000D03*
X32035000Y-40220000D03*
X33305000Y-40220000D03*
X34575000Y-40220000D03*
X35845000Y-40220000D03*
X37115000Y-40220000D03*
X38385000Y-40220000D03*
X39655000Y-40220000D03*
X40925000Y-40220000D03*
X42195000Y-40220000D03*
X43465000Y-40220000D03*
X44735000Y-40220000D03*
D23*
X46500000Y-38970000D03*
X46500000Y-37700000D03*
X46500000Y-36430000D03*
X46500000Y-35160000D03*
X46500000Y-33890000D03*
X46500000Y-32620000D03*
X46500000Y-31350000D03*
X46500000Y-30080000D03*
X46500000Y-28810000D03*
X46500000Y-27540000D03*
X46500000Y-26270000D03*
X46500000Y-25000000D03*
X46500000Y-23730000D03*
X46500000Y-22460000D03*
D25*
X34850000Y-29480000D03*
X34850000Y-30880000D03*
X35550000Y-28780000D03*
X35550000Y-30180000D03*
X35550000Y-31580000D03*
X36250000Y-29480000D03*
D26*
X36250000Y-30180000D03*
D25*
X36250000Y-30880000D03*
X36950000Y-28780000D03*
X36950000Y-30180000D03*
X36950000Y-31580000D03*
X37650000Y-29480000D03*
X37650000Y-30880000D03*
%TD*%
D27*
%TO.C,J2*%
X25600000Y-21920000D03*
D11*
X25600000Y-24460000D03*
X25600000Y-27000000D03*
X25600000Y-29540000D03*
X25600000Y-32080000D03*
X25600000Y-34620000D03*
X25600000Y-37160000D03*
X25600000Y-39700000D03*
%TD*%
D18*
%TO.C,C7*%
X28537500Y-61000000D03*
X26462500Y-61000000D03*
%TD*%
%TO.C,C9*%
X28537500Y-58000000D03*
X26462500Y-58000000D03*
%TD*%
D15*
%TO.C,R6*%
X26500000Y-55000000D03*
X28500000Y-55000000D03*
%TD*%
D12*
%TO.C,H3*%
X20000000Y-78000000D03*
%TD*%
D18*
%TO.C,C8*%
X28537500Y-64000000D03*
X26462500Y-64000000D03*
%TD*%
M02*
