%TF.GenerationSoftware,KiCad,Pcbnew,9.0.0*%
%TF.CreationDate,2025-03-13T15:17:37+10:00*%
%TF.ProjectId,Version 1,56657273-696f-46e2-9031-2e6b69636164,rev?*%
%TF.SameCoordinates,Original*%
%TF.FileFunction,Legend,Top*%
%TF.FilePolarity,Positive*%
%FSLAX46Y46*%
G04 Gerber Fmt 4.6, Leading zero omitted, Abs format (unit mm)*
G04 Created by KiCad (PCBNEW 9.0.0) date 2025-03-13 15:17:37*
%MOMM*%
%LPD*%
G01*
G04 APERTURE LIST*
%ADD10C,0.100000*%
%ADD11C,0.120000*%
G04 APERTURE END LIST*
D10*
X26922931Y-77433609D02*
X26684836Y-77433609D01*
X26684836Y-77433609D02*
X26661027Y-77671704D01*
X26661027Y-77671704D02*
X26684836Y-77647895D01*
X26684836Y-77647895D02*
X26732455Y-77624085D01*
X26732455Y-77624085D02*
X26851503Y-77624085D01*
X26851503Y-77624085D02*
X26899122Y-77647895D01*
X26899122Y-77647895D02*
X26922931Y-77671704D01*
X26922931Y-77671704D02*
X26946741Y-77719323D01*
X26946741Y-77719323D02*
X26946741Y-77838371D01*
X26946741Y-77838371D02*
X26922931Y-77885990D01*
X26922931Y-77885990D02*
X26899122Y-77909800D01*
X26899122Y-77909800D02*
X26851503Y-77933609D01*
X26851503Y-77933609D02*
X26732455Y-77933609D01*
X26732455Y-77933609D02*
X26684836Y-77909800D01*
X26684836Y-77909800D02*
X26661027Y-77885990D01*
X27161026Y-77885990D02*
X27184836Y-77909800D01*
X27184836Y-77909800D02*
X27161026Y-77933609D01*
X27161026Y-77933609D02*
X27137217Y-77909800D01*
X27137217Y-77909800D02*
X27161026Y-77885990D01*
X27161026Y-77885990D02*
X27161026Y-77933609D01*
X27661026Y-77933609D02*
X27375312Y-77933609D01*
X27518169Y-77933609D02*
X27518169Y-77433609D01*
X27518169Y-77433609D02*
X27470550Y-77505038D01*
X27470550Y-77505038D02*
X27422931Y-77552657D01*
X27422931Y-77552657D02*
X27375312Y-77576466D01*
X27875311Y-77933609D02*
X27875311Y-77433609D01*
X28161025Y-77933609D02*
X27946740Y-77647895D01*
X28161025Y-77433609D02*
X27875311Y-77719323D01*
X26922931Y-74433609D02*
X26684836Y-74433609D01*
X26684836Y-74433609D02*
X26661027Y-74671704D01*
X26661027Y-74671704D02*
X26684836Y-74647895D01*
X26684836Y-74647895D02*
X26732455Y-74624085D01*
X26732455Y-74624085D02*
X26851503Y-74624085D01*
X26851503Y-74624085D02*
X26899122Y-74647895D01*
X26899122Y-74647895D02*
X26922931Y-74671704D01*
X26922931Y-74671704D02*
X26946741Y-74719323D01*
X26946741Y-74719323D02*
X26946741Y-74838371D01*
X26946741Y-74838371D02*
X26922931Y-74885990D01*
X26922931Y-74885990D02*
X26899122Y-74909800D01*
X26899122Y-74909800D02*
X26851503Y-74933609D01*
X26851503Y-74933609D02*
X26732455Y-74933609D01*
X26732455Y-74933609D02*
X26684836Y-74909800D01*
X26684836Y-74909800D02*
X26661027Y-74885990D01*
X27161026Y-74885990D02*
X27184836Y-74909800D01*
X27184836Y-74909800D02*
X27161026Y-74933609D01*
X27161026Y-74933609D02*
X27137217Y-74909800D01*
X27137217Y-74909800D02*
X27161026Y-74885990D01*
X27161026Y-74885990D02*
X27161026Y-74933609D01*
X27661026Y-74933609D02*
X27375312Y-74933609D01*
X27518169Y-74933609D02*
X27518169Y-74433609D01*
X27518169Y-74433609D02*
X27470550Y-74505038D01*
X27470550Y-74505038D02*
X27422931Y-74552657D01*
X27422931Y-74552657D02*
X27375312Y-74576466D01*
X27875311Y-74933609D02*
X27875311Y-74433609D01*
X28161025Y-74933609D02*
X27946740Y-74647895D01*
X28161025Y-74433609D02*
X27875311Y-74719323D01*
X18066390Y-66184836D02*
X17661628Y-66184836D01*
X17661628Y-66184836D02*
X17614009Y-66208646D01*
X17614009Y-66208646D02*
X17590200Y-66232455D01*
X17590200Y-66232455D02*
X17566390Y-66280074D01*
X17566390Y-66280074D02*
X17566390Y-66375312D01*
X17566390Y-66375312D02*
X17590200Y-66422931D01*
X17590200Y-66422931D02*
X17614009Y-66446741D01*
X17614009Y-66446741D02*
X17661628Y-66470550D01*
X17661628Y-66470550D02*
X18066390Y-66470550D01*
X17590200Y-66684837D02*
X17566390Y-66756265D01*
X17566390Y-66756265D02*
X17566390Y-66875313D01*
X17566390Y-66875313D02*
X17590200Y-66922932D01*
X17590200Y-66922932D02*
X17614009Y-66946741D01*
X17614009Y-66946741D02*
X17661628Y-66970551D01*
X17661628Y-66970551D02*
X17709247Y-66970551D01*
X17709247Y-66970551D02*
X17756866Y-66946741D01*
X17756866Y-66946741D02*
X17780676Y-66922932D01*
X17780676Y-66922932D02*
X17804485Y-66875313D01*
X17804485Y-66875313D02*
X17828295Y-66780075D01*
X17828295Y-66780075D02*
X17852104Y-66732456D01*
X17852104Y-66732456D02*
X17875914Y-66708646D01*
X17875914Y-66708646D02*
X17923533Y-66684837D01*
X17923533Y-66684837D02*
X17971152Y-66684837D01*
X17971152Y-66684837D02*
X18018771Y-66708646D01*
X18018771Y-66708646D02*
X18042580Y-66732456D01*
X18042580Y-66732456D02*
X18066390Y-66780075D01*
X18066390Y-66780075D02*
X18066390Y-66899122D01*
X18066390Y-66899122D02*
X18042580Y-66970551D01*
X17828295Y-67351503D02*
X17804485Y-67422931D01*
X17804485Y-67422931D02*
X17780676Y-67446741D01*
X17780676Y-67446741D02*
X17733057Y-67470550D01*
X17733057Y-67470550D02*
X17661628Y-67470550D01*
X17661628Y-67470550D02*
X17614009Y-67446741D01*
X17614009Y-67446741D02*
X17590200Y-67422931D01*
X17590200Y-67422931D02*
X17566390Y-67375312D01*
X17566390Y-67375312D02*
X17566390Y-67184836D01*
X17566390Y-67184836D02*
X18066390Y-67184836D01*
X18066390Y-67184836D02*
X18066390Y-67351503D01*
X18066390Y-67351503D02*
X18042580Y-67399122D01*
X18042580Y-67399122D02*
X18018771Y-67422931D01*
X18018771Y-67422931D02*
X17971152Y-67446741D01*
X17971152Y-67446741D02*
X17923533Y-67446741D01*
X17923533Y-67446741D02*
X17875914Y-67422931D01*
X17875914Y-67422931D02*
X17852104Y-67399122D01*
X17852104Y-67399122D02*
X17828295Y-67351503D01*
X17828295Y-67351503D02*
X17828295Y-67184836D01*
X17614009Y-67970550D02*
X17590200Y-67946741D01*
X17590200Y-67946741D02*
X17566390Y-67875312D01*
X17566390Y-67875312D02*
X17566390Y-67827693D01*
X17566390Y-67827693D02*
X17590200Y-67756265D01*
X17590200Y-67756265D02*
X17637819Y-67708646D01*
X17637819Y-67708646D02*
X17685438Y-67684836D01*
X17685438Y-67684836D02*
X17780676Y-67661027D01*
X17780676Y-67661027D02*
X17852104Y-67661027D01*
X17852104Y-67661027D02*
X17947342Y-67684836D01*
X17947342Y-67684836D02*
X17994961Y-67708646D01*
X17994961Y-67708646D02*
X18042580Y-67756265D01*
X18042580Y-67756265D02*
X18066390Y-67827693D01*
X18066390Y-67827693D02*
X18066390Y-67875312D01*
X18066390Y-67875312D02*
X18042580Y-67946741D01*
X18042580Y-67946741D02*
X18018771Y-67970550D01*
X26566390Y-45922931D02*
X26566390Y-45684836D01*
X26566390Y-45684836D02*
X27066390Y-45684836D01*
X26566390Y-46089598D02*
X27066390Y-46089598D01*
X27066390Y-46089598D02*
X26709247Y-46256265D01*
X26709247Y-46256265D02*
X27066390Y-46422931D01*
X27066390Y-46422931D02*
X26566390Y-46422931D01*
X26566390Y-46922932D02*
X26566390Y-46637218D01*
X26566390Y-46780075D02*
X27066390Y-46780075D01*
X27066390Y-46780075D02*
X26994961Y-46732456D01*
X26994961Y-46732456D02*
X26947342Y-46684837D01*
X26947342Y-46684837D02*
X26923533Y-46637218D01*
X26566390Y-47399122D02*
X26566390Y-47113408D01*
X26566390Y-47256265D02*
X27066390Y-47256265D01*
X27066390Y-47256265D02*
X26994961Y-47208646D01*
X26994961Y-47208646D02*
X26947342Y-47161027D01*
X26947342Y-47161027D02*
X26923533Y-47113408D01*
X26566390Y-47875312D02*
X26566390Y-47589598D01*
X26566390Y-47732455D02*
X27066390Y-47732455D01*
X27066390Y-47732455D02*
X26994961Y-47684836D01*
X26994961Y-47684836D02*
X26947342Y-47637217D01*
X26947342Y-47637217D02*
X26923533Y-47589598D01*
X27066390Y-48041978D02*
X27066390Y-48375311D01*
X27066390Y-48375311D02*
X26566390Y-48161026D01*
X26566390Y-48565787D02*
X27066390Y-48565787D01*
X27066390Y-48565787D02*
X26709247Y-48732454D01*
X26709247Y-48732454D02*
X27066390Y-48899120D01*
X27066390Y-48899120D02*
X26566390Y-48899120D01*
X26566390Y-49137216D02*
X27066390Y-49137216D01*
X27066390Y-49137216D02*
X27066390Y-49327692D01*
X27066390Y-49327692D02*
X27042580Y-49375311D01*
X27042580Y-49375311D02*
X27018771Y-49399121D01*
X27018771Y-49399121D02*
X26971152Y-49422930D01*
X26971152Y-49422930D02*
X26899723Y-49422930D01*
X26899723Y-49422930D02*
X26852104Y-49399121D01*
X26852104Y-49399121D02*
X26828295Y-49375311D01*
X26828295Y-49375311D02*
X26804485Y-49327692D01*
X26804485Y-49327692D02*
X26804485Y-49137216D01*
X52433609Y-16945163D02*
X51933609Y-16945163D01*
X51933609Y-16611830D02*
X51933609Y-16516592D01*
X51933609Y-16516592D02*
X51957419Y-16468973D01*
X51957419Y-16468973D02*
X52005038Y-16421354D01*
X52005038Y-16421354D02*
X52100276Y-16397544D01*
X52100276Y-16397544D02*
X52266942Y-16397544D01*
X52266942Y-16397544D02*
X52362180Y-16421354D01*
X52362180Y-16421354D02*
X52409800Y-16468973D01*
X52409800Y-16468973D02*
X52433609Y-16516592D01*
X52433609Y-16516592D02*
X52433609Y-16611830D01*
X52433609Y-16611830D02*
X52409800Y-16659449D01*
X52409800Y-16659449D02*
X52362180Y-16707068D01*
X52362180Y-16707068D02*
X52266942Y-16730877D01*
X52266942Y-16730877D02*
X52100276Y-16730877D01*
X52100276Y-16730877D02*
X52005038Y-16707068D01*
X52005038Y-16707068D02*
X51957419Y-16659449D01*
X51957419Y-16659449D02*
X51933609Y-16611830D01*
X51933609Y-16088020D02*
X51933609Y-16040401D01*
X51933609Y-16040401D02*
X51957419Y-15992782D01*
X51957419Y-15992782D02*
X51981228Y-15968972D01*
X51981228Y-15968972D02*
X52028847Y-15945163D01*
X52028847Y-15945163D02*
X52124085Y-15921353D01*
X52124085Y-15921353D02*
X52243133Y-15921353D01*
X52243133Y-15921353D02*
X52338371Y-15945163D01*
X52338371Y-15945163D02*
X52385990Y-15968972D01*
X52385990Y-15968972D02*
X52409800Y-15992782D01*
X52409800Y-15992782D02*
X52433609Y-16040401D01*
X52433609Y-16040401D02*
X52433609Y-16088020D01*
X52433609Y-16088020D02*
X52409800Y-16135639D01*
X52409800Y-16135639D02*
X52385990Y-16159448D01*
X52385990Y-16159448D02*
X52338371Y-16183258D01*
X52338371Y-16183258D02*
X52243133Y-16207067D01*
X52243133Y-16207067D02*
X52124085Y-16207067D01*
X52124085Y-16207067D02*
X52028847Y-16183258D01*
X52028847Y-16183258D02*
X51981228Y-16159448D01*
X51981228Y-16159448D02*
X51957419Y-16135639D01*
X51957419Y-16135639D02*
X51933609Y-16088020D01*
X52433609Y-15445163D02*
X52433609Y-15730877D01*
X52433609Y-15588020D02*
X51933609Y-15588020D01*
X51933609Y-15588020D02*
X52005038Y-15635639D01*
X52005038Y-15635639D02*
X52052657Y-15683258D01*
X52052657Y-15683258D02*
X52076466Y-15730877D01*
X54933609Y-16945163D02*
X54433609Y-16945163D01*
X54433609Y-16611830D02*
X54433609Y-16516592D01*
X54433609Y-16516592D02*
X54457419Y-16468973D01*
X54457419Y-16468973D02*
X54505038Y-16421354D01*
X54505038Y-16421354D02*
X54600276Y-16397544D01*
X54600276Y-16397544D02*
X54766942Y-16397544D01*
X54766942Y-16397544D02*
X54862180Y-16421354D01*
X54862180Y-16421354D02*
X54909800Y-16468973D01*
X54909800Y-16468973D02*
X54933609Y-16516592D01*
X54933609Y-16516592D02*
X54933609Y-16611830D01*
X54933609Y-16611830D02*
X54909800Y-16659449D01*
X54909800Y-16659449D02*
X54862180Y-16707068D01*
X54862180Y-16707068D02*
X54766942Y-16730877D01*
X54766942Y-16730877D02*
X54600276Y-16730877D01*
X54600276Y-16730877D02*
X54505038Y-16707068D01*
X54505038Y-16707068D02*
X54457419Y-16659449D01*
X54457419Y-16659449D02*
X54433609Y-16611830D01*
X54433609Y-16088020D02*
X54433609Y-16040401D01*
X54433609Y-16040401D02*
X54457419Y-15992782D01*
X54457419Y-15992782D02*
X54481228Y-15968972D01*
X54481228Y-15968972D02*
X54528847Y-15945163D01*
X54528847Y-15945163D02*
X54624085Y-15921353D01*
X54624085Y-15921353D02*
X54743133Y-15921353D01*
X54743133Y-15921353D02*
X54838371Y-15945163D01*
X54838371Y-15945163D02*
X54885990Y-15968972D01*
X54885990Y-15968972D02*
X54909800Y-15992782D01*
X54909800Y-15992782D02*
X54933609Y-16040401D01*
X54933609Y-16040401D02*
X54933609Y-16088020D01*
X54933609Y-16088020D02*
X54909800Y-16135639D01*
X54909800Y-16135639D02*
X54885990Y-16159448D01*
X54885990Y-16159448D02*
X54838371Y-16183258D01*
X54838371Y-16183258D02*
X54743133Y-16207067D01*
X54743133Y-16207067D02*
X54624085Y-16207067D01*
X54624085Y-16207067D02*
X54528847Y-16183258D01*
X54528847Y-16183258D02*
X54481228Y-16159448D01*
X54481228Y-16159448D02*
X54457419Y-16135639D01*
X54457419Y-16135639D02*
X54433609Y-16088020D01*
X54481228Y-15730877D02*
X54457419Y-15707068D01*
X54457419Y-15707068D02*
X54433609Y-15659449D01*
X54433609Y-15659449D02*
X54433609Y-15540401D01*
X54433609Y-15540401D02*
X54457419Y-15492782D01*
X54457419Y-15492782D02*
X54481228Y-15468973D01*
X54481228Y-15468973D02*
X54528847Y-15445163D01*
X54528847Y-15445163D02*
X54576466Y-15445163D01*
X54576466Y-15445163D02*
X54647895Y-15468973D01*
X54647895Y-15468973D02*
X54933609Y-15754687D01*
X54933609Y-15754687D02*
X54933609Y-15445163D01*
X57433609Y-16945163D02*
X56933609Y-16945163D01*
X56933609Y-16611830D02*
X56933609Y-16516592D01*
X56933609Y-16516592D02*
X56957419Y-16468973D01*
X56957419Y-16468973D02*
X57005038Y-16421354D01*
X57005038Y-16421354D02*
X57100276Y-16397544D01*
X57100276Y-16397544D02*
X57266942Y-16397544D01*
X57266942Y-16397544D02*
X57362180Y-16421354D01*
X57362180Y-16421354D02*
X57409800Y-16468973D01*
X57409800Y-16468973D02*
X57433609Y-16516592D01*
X57433609Y-16516592D02*
X57433609Y-16611830D01*
X57433609Y-16611830D02*
X57409800Y-16659449D01*
X57409800Y-16659449D02*
X57362180Y-16707068D01*
X57362180Y-16707068D02*
X57266942Y-16730877D01*
X57266942Y-16730877D02*
X57100276Y-16730877D01*
X57100276Y-16730877D02*
X57005038Y-16707068D01*
X57005038Y-16707068D02*
X56957419Y-16659449D01*
X56957419Y-16659449D02*
X56933609Y-16611830D01*
X57100276Y-15968972D02*
X57433609Y-15968972D01*
X56909800Y-16088020D02*
X57266942Y-16207067D01*
X57266942Y-16207067D02*
X57266942Y-15897544D01*
X56981228Y-15730877D02*
X56957419Y-15707068D01*
X56957419Y-15707068D02*
X56933609Y-15659449D01*
X56933609Y-15659449D02*
X56933609Y-15540401D01*
X56933609Y-15540401D02*
X56957419Y-15492782D01*
X56957419Y-15492782D02*
X56981228Y-15468973D01*
X56981228Y-15468973D02*
X57028847Y-15445163D01*
X57028847Y-15445163D02*
X57076466Y-15445163D01*
X57076466Y-15445163D02*
X57147895Y-15468973D01*
X57147895Y-15468973D02*
X57433609Y-15754687D01*
X57433609Y-15754687D02*
X57433609Y-15445163D01*
X59933609Y-16945163D02*
X59433609Y-16945163D01*
X59433609Y-16611830D02*
X59433609Y-16516592D01*
X59433609Y-16516592D02*
X59457419Y-16468973D01*
X59457419Y-16468973D02*
X59505038Y-16421354D01*
X59505038Y-16421354D02*
X59600276Y-16397544D01*
X59600276Y-16397544D02*
X59766942Y-16397544D01*
X59766942Y-16397544D02*
X59862180Y-16421354D01*
X59862180Y-16421354D02*
X59909800Y-16468973D01*
X59909800Y-16468973D02*
X59933609Y-16516592D01*
X59933609Y-16516592D02*
X59933609Y-16611830D01*
X59933609Y-16611830D02*
X59909800Y-16659449D01*
X59909800Y-16659449D02*
X59862180Y-16707068D01*
X59862180Y-16707068D02*
X59766942Y-16730877D01*
X59766942Y-16730877D02*
X59600276Y-16730877D01*
X59600276Y-16730877D02*
X59505038Y-16707068D01*
X59505038Y-16707068D02*
X59457419Y-16659449D01*
X59457419Y-16659449D02*
X59433609Y-16611830D01*
X59600276Y-15968972D02*
X59933609Y-15968972D01*
X59409800Y-16088020D02*
X59766942Y-16207067D01*
X59766942Y-16207067D02*
X59766942Y-15897544D01*
X59933609Y-15445163D02*
X59933609Y-15730877D01*
X59933609Y-15588020D02*
X59433609Y-15588020D01*
X59433609Y-15588020D02*
X59505038Y-15635639D01*
X59505038Y-15635639D02*
X59552657Y-15683258D01*
X59552657Y-15683258D02*
X59576466Y-15730877D01*
X62598609Y-16945163D02*
X62098609Y-16945163D01*
X62098609Y-16611830D02*
X62098609Y-16516592D01*
X62098609Y-16516592D02*
X62122419Y-16468973D01*
X62122419Y-16468973D02*
X62170038Y-16421354D01*
X62170038Y-16421354D02*
X62265276Y-16397544D01*
X62265276Y-16397544D02*
X62431942Y-16397544D01*
X62431942Y-16397544D02*
X62527180Y-16421354D01*
X62527180Y-16421354D02*
X62574800Y-16468973D01*
X62574800Y-16468973D02*
X62598609Y-16516592D01*
X62598609Y-16516592D02*
X62598609Y-16611830D01*
X62598609Y-16611830D02*
X62574800Y-16659449D01*
X62574800Y-16659449D02*
X62527180Y-16707068D01*
X62527180Y-16707068D02*
X62431942Y-16730877D01*
X62431942Y-16730877D02*
X62265276Y-16730877D01*
X62265276Y-16730877D02*
X62170038Y-16707068D01*
X62170038Y-16707068D02*
X62122419Y-16659449D01*
X62122419Y-16659449D02*
X62098609Y-16611830D01*
X62265276Y-15968972D02*
X62598609Y-15968972D01*
X62074800Y-16088020D02*
X62431942Y-16207067D01*
X62431942Y-16207067D02*
X62431942Y-15897544D01*
X62098609Y-15611830D02*
X62098609Y-15564211D01*
X62098609Y-15564211D02*
X62122419Y-15516592D01*
X62122419Y-15516592D02*
X62146228Y-15492782D01*
X62146228Y-15492782D02*
X62193847Y-15468973D01*
X62193847Y-15468973D02*
X62289085Y-15445163D01*
X62289085Y-15445163D02*
X62408133Y-15445163D01*
X62408133Y-15445163D02*
X62503371Y-15468973D01*
X62503371Y-15468973D02*
X62550990Y-15492782D01*
X62550990Y-15492782D02*
X62574800Y-15516592D01*
X62574800Y-15516592D02*
X62598609Y-15564211D01*
X62598609Y-15564211D02*
X62598609Y-15611830D01*
X62598609Y-15611830D02*
X62574800Y-15659449D01*
X62574800Y-15659449D02*
X62550990Y-15683258D01*
X62550990Y-15683258D02*
X62503371Y-15707068D01*
X62503371Y-15707068D02*
X62408133Y-15730877D01*
X62408133Y-15730877D02*
X62289085Y-15730877D01*
X62289085Y-15730877D02*
X62193847Y-15707068D01*
X62193847Y-15707068D02*
X62146228Y-15683258D01*
X62146228Y-15683258D02*
X62122419Y-15659449D01*
X62122419Y-15659449D02*
X62098609Y-15611830D01*
X52433609Y-24315163D02*
X51933609Y-24315163D01*
X51933609Y-23981830D02*
X51933609Y-23886592D01*
X51933609Y-23886592D02*
X51957419Y-23838973D01*
X51957419Y-23838973D02*
X52005038Y-23791354D01*
X52005038Y-23791354D02*
X52100276Y-23767544D01*
X52100276Y-23767544D02*
X52266942Y-23767544D01*
X52266942Y-23767544D02*
X52362180Y-23791354D01*
X52362180Y-23791354D02*
X52409800Y-23838973D01*
X52409800Y-23838973D02*
X52433609Y-23886592D01*
X52433609Y-23886592D02*
X52433609Y-23981830D01*
X52433609Y-23981830D02*
X52409800Y-24029449D01*
X52409800Y-24029449D02*
X52362180Y-24077068D01*
X52362180Y-24077068D02*
X52266942Y-24100877D01*
X52266942Y-24100877D02*
X52100276Y-24100877D01*
X52100276Y-24100877D02*
X52005038Y-24077068D01*
X52005038Y-24077068D02*
X51957419Y-24029449D01*
X51957419Y-24029449D02*
X51933609Y-23981830D01*
X51933609Y-23600877D02*
X51933609Y-23291353D01*
X51933609Y-23291353D02*
X52124085Y-23458020D01*
X52124085Y-23458020D02*
X52124085Y-23386591D01*
X52124085Y-23386591D02*
X52147895Y-23338972D01*
X52147895Y-23338972D02*
X52171704Y-23315163D01*
X52171704Y-23315163D02*
X52219323Y-23291353D01*
X52219323Y-23291353D02*
X52338371Y-23291353D01*
X52338371Y-23291353D02*
X52385990Y-23315163D01*
X52385990Y-23315163D02*
X52409800Y-23338972D01*
X52409800Y-23338972D02*
X52433609Y-23386591D01*
X52433609Y-23386591D02*
X52433609Y-23529448D01*
X52433609Y-23529448D02*
X52409800Y-23577067D01*
X52409800Y-23577067D02*
X52385990Y-23600877D01*
X52433609Y-23053258D02*
X52433609Y-22958020D01*
X52433609Y-22958020D02*
X52409800Y-22910401D01*
X52409800Y-22910401D02*
X52385990Y-22886592D01*
X52385990Y-22886592D02*
X52314561Y-22838973D01*
X52314561Y-22838973D02*
X52219323Y-22815163D01*
X52219323Y-22815163D02*
X52028847Y-22815163D01*
X52028847Y-22815163D02*
X51981228Y-22838973D01*
X51981228Y-22838973D02*
X51957419Y-22862782D01*
X51957419Y-22862782D02*
X51933609Y-22910401D01*
X51933609Y-22910401D02*
X51933609Y-23005639D01*
X51933609Y-23005639D02*
X51957419Y-23053258D01*
X51957419Y-23053258D02*
X51981228Y-23077068D01*
X51981228Y-23077068D02*
X52028847Y-23100877D01*
X52028847Y-23100877D02*
X52147895Y-23100877D01*
X52147895Y-23100877D02*
X52195514Y-23077068D01*
X52195514Y-23077068D02*
X52219323Y-23053258D01*
X52219323Y-23053258D02*
X52243133Y-23005639D01*
X52243133Y-23005639D02*
X52243133Y-22910401D01*
X52243133Y-22910401D02*
X52219323Y-22862782D01*
X52219323Y-22862782D02*
X52195514Y-22838973D01*
X52195514Y-22838973D02*
X52147895Y-22815163D01*
X54933609Y-24315163D02*
X54433609Y-24315163D01*
X54433609Y-23981830D02*
X54433609Y-23886592D01*
X54433609Y-23886592D02*
X54457419Y-23838973D01*
X54457419Y-23838973D02*
X54505038Y-23791354D01*
X54505038Y-23791354D02*
X54600276Y-23767544D01*
X54600276Y-23767544D02*
X54766942Y-23767544D01*
X54766942Y-23767544D02*
X54862180Y-23791354D01*
X54862180Y-23791354D02*
X54909800Y-23838973D01*
X54909800Y-23838973D02*
X54933609Y-23886592D01*
X54933609Y-23886592D02*
X54933609Y-23981830D01*
X54933609Y-23981830D02*
X54909800Y-24029449D01*
X54909800Y-24029449D02*
X54862180Y-24077068D01*
X54862180Y-24077068D02*
X54766942Y-24100877D01*
X54766942Y-24100877D02*
X54600276Y-24100877D01*
X54600276Y-24100877D02*
X54505038Y-24077068D01*
X54505038Y-24077068D02*
X54457419Y-24029449D01*
X54457419Y-24029449D02*
X54433609Y-23981830D01*
X54433609Y-23600877D02*
X54433609Y-23291353D01*
X54433609Y-23291353D02*
X54624085Y-23458020D01*
X54624085Y-23458020D02*
X54624085Y-23386591D01*
X54624085Y-23386591D02*
X54647895Y-23338972D01*
X54647895Y-23338972D02*
X54671704Y-23315163D01*
X54671704Y-23315163D02*
X54719323Y-23291353D01*
X54719323Y-23291353D02*
X54838371Y-23291353D01*
X54838371Y-23291353D02*
X54885990Y-23315163D01*
X54885990Y-23315163D02*
X54909800Y-23338972D01*
X54909800Y-23338972D02*
X54933609Y-23386591D01*
X54933609Y-23386591D02*
X54933609Y-23529448D01*
X54933609Y-23529448D02*
X54909800Y-23577067D01*
X54909800Y-23577067D02*
X54885990Y-23600877D01*
X54647895Y-23005639D02*
X54624085Y-23053258D01*
X54624085Y-23053258D02*
X54600276Y-23077068D01*
X54600276Y-23077068D02*
X54552657Y-23100877D01*
X54552657Y-23100877D02*
X54528847Y-23100877D01*
X54528847Y-23100877D02*
X54481228Y-23077068D01*
X54481228Y-23077068D02*
X54457419Y-23053258D01*
X54457419Y-23053258D02*
X54433609Y-23005639D01*
X54433609Y-23005639D02*
X54433609Y-22910401D01*
X54433609Y-22910401D02*
X54457419Y-22862782D01*
X54457419Y-22862782D02*
X54481228Y-22838973D01*
X54481228Y-22838973D02*
X54528847Y-22815163D01*
X54528847Y-22815163D02*
X54552657Y-22815163D01*
X54552657Y-22815163D02*
X54600276Y-22838973D01*
X54600276Y-22838973D02*
X54624085Y-22862782D01*
X54624085Y-22862782D02*
X54647895Y-22910401D01*
X54647895Y-22910401D02*
X54647895Y-23005639D01*
X54647895Y-23005639D02*
X54671704Y-23053258D01*
X54671704Y-23053258D02*
X54695514Y-23077068D01*
X54695514Y-23077068D02*
X54743133Y-23100877D01*
X54743133Y-23100877D02*
X54838371Y-23100877D01*
X54838371Y-23100877D02*
X54885990Y-23077068D01*
X54885990Y-23077068D02*
X54909800Y-23053258D01*
X54909800Y-23053258D02*
X54933609Y-23005639D01*
X54933609Y-23005639D02*
X54933609Y-22910401D01*
X54933609Y-22910401D02*
X54909800Y-22862782D01*
X54909800Y-22862782D02*
X54885990Y-22838973D01*
X54885990Y-22838973D02*
X54838371Y-22815163D01*
X54838371Y-22815163D02*
X54743133Y-22815163D01*
X54743133Y-22815163D02*
X54695514Y-22838973D01*
X54695514Y-22838973D02*
X54671704Y-22862782D01*
X54671704Y-22862782D02*
X54647895Y-22910401D01*
X57433609Y-24315163D02*
X56933609Y-24315163D01*
X56933609Y-23981830D02*
X56933609Y-23886592D01*
X56933609Y-23886592D02*
X56957419Y-23838973D01*
X56957419Y-23838973D02*
X57005038Y-23791354D01*
X57005038Y-23791354D02*
X57100276Y-23767544D01*
X57100276Y-23767544D02*
X57266942Y-23767544D01*
X57266942Y-23767544D02*
X57362180Y-23791354D01*
X57362180Y-23791354D02*
X57409800Y-23838973D01*
X57409800Y-23838973D02*
X57433609Y-23886592D01*
X57433609Y-23886592D02*
X57433609Y-23981830D01*
X57433609Y-23981830D02*
X57409800Y-24029449D01*
X57409800Y-24029449D02*
X57362180Y-24077068D01*
X57362180Y-24077068D02*
X57266942Y-24100877D01*
X57266942Y-24100877D02*
X57100276Y-24100877D01*
X57100276Y-24100877D02*
X57005038Y-24077068D01*
X57005038Y-24077068D02*
X56957419Y-24029449D01*
X56957419Y-24029449D02*
X56933609Y-23981830D01*
X56933609Y-23600877D02*
X56933609Y-23291353D01*
X56933609Y-23291353D02*
X57124085Y-23458020D01*
X57124085Y-23458020D02*
X57124085Y-23386591D01*
X57124085Y-23386591D02*
X57147895Y-23338972D01*
X57147895Y-23338972D02*
X57171704Y-23315163D01*
X57171704Y-23315163D02*
X57219323Y-23291353D01*
X57219323Y-23291353D02*
X57338371Y-23291353D01*
X57338371Y-23291353D02*
X57385990Y-23315163D01*
X57385990Y-23315163D02*
X57409800Y-23338972D01*
X57409800Y-23338972D02*
X57433609Y-23386591D01*
X57433609Y-23386591D02*
X57433609Y-23529448D01*
X57433609Y-23529448D02*
X57409800Y-23577067D01*
X57409800Y-23577067D02*
X57385990Y-23600877D01*
X56933609Y-23124687D02*
X56933609Y-22791354D01*
X56933609Y-22791354D02*
X57433609Y-23005639D01*
X59933609Y-24315163D02*
X59433609Y-24315163D01*
X59433609Y-23981830D02*
X59433609Y-23886592D01*
X59433609Y-23886592D02*
X59457419Y-23838973D01*
X59457419Y-23838973D02*
X59505038Y-23791354D01*
X59505038Y-23791354D02*
X59600276Y-23767544D01*
X59600276Y-23767544D02*
X59766942Y-23767544D01*
X59766942Y-23767544D02*
X59862180Y-23791354D01*
X59862180Y-23791354D02*
X59909800Y-23838973D01*
X59909800Y-23838973D02*
X59933609Y-23886592D01*
X59933609Y-23886592D02*
X59933609Y-23981830D01*
X59933609Y-23981830D02*
X59909800Y-24029449D01*
X59909800Y-24029449D02*
X59862180Y-24077068D01*
X59862180Y-24077068D02*
X59766942Y-24100877D01*
X59766942Y-24100877D02*
X59600276Y-24100877D01*
X59600276Y-24100877D02*
X59505038Y-24077068D01*
X59505038Y-24077068D02*
X59457419Y-24029449D01*
X59457419Y-24029449D02*
X59433609Y-23981830D01*
X59433609Y-23600877D02*
X59433609Y-23291353D01*
X59433609Y-23291353D02*
X59624085Y-23458020D01*
X59624085Y-23458020D02*
X59624085Y-23386591D01*
X59624085Y-23386591D02*
X59647895Y-23338972D01*
X59647895Y-23338972D02*
X59671704Y-23315163D01*
X59671704Y-23315163D02*
X59719323Y-23291353D01*
X59719323Y-23291353D02*
X59838371Y-23291353D01*
X59838371Y-23291353D02*
X59885990Y-23315163D01*
X59885990Y-23315163D02*
X59909800Y-23338972D01*
X59909800Y-23338972D02*
X59933609Y-23386591D01*
X59933609Y-23386591D02*
X59933609Y-23529448D01*
X59933609Y-23529448D02*
X59909800Y-23577067D01*
X59909800Y-23577067D02*
X59885990Y-23600877D01*
X59433609Y-22862782D02*
X59433609Y-22958020D01*
X59433609Y-22958020D02*
X59457419Y-23005639D01*
X59457419Y-23005639D02*
X59481228Y-23029449D01*
X59481228Y-23029449D02*
X59552657Y-23077068D01*
X59552657Y-23077068D02*
X59647895Y-23100877D01*
X59647895Y-23100877D02*
X59838371Y-23100877D01*
X59838371Y-23100877D02*
X59885990Y-23077068D01*
X59885990Y-23077068D02*
X59909800Y-23053258D01*
X59909800Y-23053258D02*
X59933609Y-23005639D01*
X59933609Y-23005639D02*
X59933609Y-22910401D01*
X59933609Y-22910401D02*
X59909800Y-22862782D01*
X59909800Y-22862782D02*
X59885990Y-22838973D01*
X59885990Y-22838973D02*
X59838371Y-22815163D01*
X59838371Y-22815163D02*
X59719323Y-22815163D01*
X59719323Y-22815163D02*
X59671704Y-22838973D01*
X59671704Y-22838973D02*
X59647895Y-22862782D01*
X59647895Y-22862782D02*
X59624085Y-22910401D01*
X59624085Y-22910401D02*
X59624085Y-23005639D01*
X59624085Y-23005639D02*
X59647895Y-23053258D01*
X59647895Y-23053258D02*
X59671704Y-23077068D01*
X59671704Y-23077068D02*
X59719323Y-23100877D01*
X62433609Y-24315163D02*
X61933609Y-24315163D01*
X61933609Y-23981830D02*
X61933609Y-23886592D01*
X61933609Y-23886592D02*
X61957419Y-23838973D01*
X61957419Y-23838973D02*
X62005038Y-23791354D01*
X62005038Y-23791354D02*
X62100276Y-23767544D01*
X62100276Y-23767544D02*
X62266942Y-23767544D01*
X62266942Y-23767544D02*
X62362180Y-23791354D01*
X62362180Y-23791354D02*
X62409800Y-23838973D01*
X62409800Y-23838973D02*
X62433609Y-23886592D01*
X62433609Y-23886592D02*
X62433609Y-23981830D01*
X62433609Y-23981830D02*
X62409800Y-24029449D01*
X62409800Y-24029449D02*
X62362180Y-24077068D01*
X62362180Y-24077068D02*
X62266942Y-24100877D01*
X62266942Y-24100877D02*
X62100276Y-24100877D01*
X62100276Y-24100877D02*
X62005038Y-24077068D01*
X62005038Y-24077068D02*
X61957419Y-24029449D01*
X61957419Y-24029449D02*
X61933609Y-23981830D01*
X61933609Y-23600877D02*
X61933609Y-23291353D01*
X61933609Y-23291353D02*
X62124085Y-23458020D01*
X62124085Y-23458020D02*
X62124085Y-23386591D01*
X62124085Y-23386591D02*
X62147895Y-23338972D01*
X62147895Y-23338972D02*
X62171704Y-23315163D01*
X62171704Y-23315163D02*
X62219323Y-23291353D01*
X62219323Y-23291353D02*
X62338371Y-23291353D01*
X62338371Y-23291353D02*
X62385990Y-23315163D01*
X62385990Y-23315163D02*
X62409800Y-23338972D01*
X62409800Y-23338972D02*
X62433609Y-23386591D01*
X62433609Y-23386591D02*
X62433609Y-23529448D01*
X62433609Y-23529448D02*
X62409800Y-23577067D01*
X62409800Y-23577067D02*
X62385990Y-23600877D01*
X61933609Y-22838973D02*
X61933609Y-23077068D01*
X61933609Y-23077068D02*
X62171704Y-23100877D01*
X62171704Y-23100877D02*
X62147895Y-23077068D01*
X62147895Y-23077068D02*
X62124085Y-23029449D01*
X62124085Y-23029449D02*
X62124085Y-22910401D01*
X62124085Y-22910401D02*
X62147895Y-22862782D01*
X62147895Y-22862782D02*
X62171704Y-22838973D01*
X62171704Y-22838973D02*
X62219323Y-22815163D01*
X62219323Y-22815163D02*
X62338371Y-22815163D01*
X62338371Y-22815163D02*
X62385990Y-22838973D01*
X62385990Y-22838973D02*
X62409800Y-22862782D01*
X62409800Y-22862782D02*
X62433609Y-22910401D01*
X62433609Y-22910401D02*
X62433609Y-23029449D01*
X62433609Y-23029449D02*
X62409800Y-23077068D01*
X62409800Y-23077068D02*
X62385990Y-23100877D01*
X17614836Y-25671704D02*
X17781503Y-25671704D01*
X17852931Y-25933609D02*
X17614836Y-25933609D01*
X17614836Y-25933609D02*
X17614836Y-25433609D01*
X17614836Y-25433609D02*
X17852931Y-25433609D01*
X18067217Y-25933609D02*
X18067217Y-25433609D01*
X18067217Y-25433609D02*
X18352931Y-25933609D01*
X18352931Y-25933609D02*
X18352931Y-25433609D01*
X17781503Y-34171704D02*
X17852931Y-34195514D01*
X17852931Y-34195514D02*
X17876741Y-34219323D01*
X17876741Y-34219323D02*
X17900550Y-34266942D01*
X17900550Y-34266942D02*
X17900550Y-34338371D01*
X17900550Y-34338371D02*
X17876741Y-34385990D01*
X17876741Y-34385990D02*
X17852931Y-34409800D01*
X17852931Y-34409800D02*
X17805312Y-34433609D01*
X17805312Y-34433609D02*
X17614836Y-34433609D01*
X17614836Y-34433609D02*
X17614836Y-33933609D01*
X17614836Y-33933609D02*
X17781503Y-33933609D01*
X17781503Y-33933609D02*
X17829122Y-33957419D01*
X17829122Y-33957419D02*
X17852931Y-33981228D01*
X17852931Y-33981228D02*
X17876741Y-34028847D01*
X17876741Y-34028847D02*
X17876741Y-34076466D01*
X17876741Y-34076466D02*
X17852931Y-34124085D01*
X17852931Y-34124085D02*
X17829122Y-34147895D01*
X17829122Y-34147895D02*
X17781503Y-34171704D01*
X17781503Y-34171704D02*
X17614836Y-34171704D01*
X18210074Y-33933609D02*
X18305312Y-33933609D01*
X18305312Y-33933609D02*
X18352931Y-33957419D01*
X18352931Y-33957419D02*
X18400550Y-34005038D01*
X18400550Y-34005038D02*
X18424360Y-34100276D01*
X18424360Y-34100276D02*
X18424360Y-34266942D01*
X18424360Y-34266942D02*
X18400550Y-34362180D01*
X18400550Y-34362180D02*
X18352931Y-34409800D01*
X18352931Y-34409800D02*
X18305312Y-34433609D01*
X18305312Y-34433609D02*
X18210074Y-34433609D01*
X18210074Y-34433609D02*
X18162455Y-34409800D01*
X18162455Y-34409800D02*
X18114836Y-34362180D01*
X18114836Y-34362180D02*
X18091027Y-34266942D01*
X18091027Y-34266942D02*
X18091027Y-34100276D01*
X18091027Y-34100276D02*
X18114836Y-34005038D01*
X18114836Y-34005038D02*
X18162455Y-33957419D01*
X18162455Y-33957419D02*
X18210074Y-33933609D01*
X18733884Y-33933609D02*
X18829122Y-33933609D01*
X18829122Y-33933609D02*
X18876741Y-33957419D01*
X18876741Y-33957419D02*
X18924360Y-34005038D01*
X18924360Y-34005038D02*
X18948170Y-34100276D01*
X18948170Y-34100276D02*
X18948170Y-34266942D01*
X18948170Y-34266942D02*
X18924360Y-34362180D01*
X18924360Y-34362180D02*
X18876741Y-34409800D01*
X18876741Y-34409800D02*
X18829122Y-34433609D01*
X18829122Y-34433609D02*
X18733884Y-34433609D01*
X18733884Y-34433609D02*
X18686265Y-34409800D01*
X18686265Y-34409800D02*
X18638646Y-34362180D01*
X18638646Y-34362180D02*
X18614837Y-34266942D01*
X18614837Y-34266942D02*
X18614837Y-34100276D01*
X18614837Y-34100276D02*
X18638646Y-34005038D01*
X18638646Y-34005038D02*
X18686265Y-33957419D01*
X18686265Y-33957419D02*
X18733884Y-33933609D01*
X19091028Y-33933609D02*
X19376742Y-33933609D01*
X19233885Y-34433609D02*
X19233885Y-33933609D01*
X17446741Y-41457419D02*
X17399122Y-41433609D01*
X17399122Y-41433609D02*
X17327693Y-41433609D01*
X17327693Y-41433609D02*
X17256265Y-41457419D01*
X17256265Y-41457419D02*
X17208646Y-41505038D01*
X17208646Y-41505038D02*
X17184836Y-41552657D01*
X17184836Y-41552657D02*
X17161027Y-41647895D01*
X17161027Y-41647895D02*
X17161027Y-41719323D01*
X17161027Y-41719323D02*
X17184836Y-41814561D01*
X17184836Y-41814561D02*
X17208646Y-41862180D01*
X17208646Y-41862180D02*
X17256265Y-41909800D01*
X17256265Y-41909800D02*
X17327693Y-41933609D01*
X17327693Y-41933609D02*
X17375312Y-41933609D01*
X17375312Y-41933609D02*
X17446741Y-41909800D01*
X17446741Y-41909800D02*
X17470550Y-41885990D01*
X17470550Y-41885990D02*
X17470550Y-41719323D01*
X17470550Y-41719323D02*
X17375312Y-41719323D01*
X17684836Y-41933609D02*
X17684836Y-41433609D01*
X17684836Y-41433609D02*
X17970550Y-41933609D01*
X17970550Y-41933609D02*
X17970550Y-41433609D01*
X18208646Y-41933609D02*
X18208646Y-41433609D01*
X18208646Y-41433609D02*
X18327694Y-41433609D01*
X18327694Y-41433609D02*
X18399122Y-41457419D01*
X18399122Y-41457419D02*
X18446741Y-41505038D01*
X18446741Y-41505038D02*
X18470551Y-41552657D01*
X18470551Y-41552657D02*
X18494360Y-41647895D01*
X18494360Y-41647895D02*
X18494360Y-41719323D01*
X18494360Y-41719323D02*
X18470551Y-41814561D01*
X18470551Y-41814561D02*
X18446741Y-41862180D01*
X18446741Y-41862180D02*
X18399122Y-41909800D01*
X18399122Y-41909800D02*
X18327694Y-41933609D01*
X18327694Y-41933609D02*
X18208646Y-41933609D01*
X17184836Y-47743133D02*
X17565789Y-47743133D01*
X17375312Y-47933609D02*
X17375312Y-47552657D01*
X17756265Y-47433609D02*
X18065789Y-47433609D01*
X18065789Y-47433609D02*
X17899122Y-47624085D01*
X17899122Y-47624085D02*
X17970551Y-47624085D01*
X17970551Y-47624085D02*
X18018170Y-47647895D01*
X18018170Y-47647895D02*
X18041979Y-47671704D01*
X18041979Y-47671704D02*
X18065789Y-47719323D01*
X18065789Y-47719323D02*
X18065789Y-47838371D01*
X18065789Y-47838371D02*
X18041979Y-47885990D01*
X18041979Y-47885990D02*
X18018170Y-47909800D01*
X18018170Y-47909800D02*
X17970551Y-47933609D01*
X17970551Y-47933609D02*
X17827694Y-47933609D01*
X17827694Y-47933609D02*
X17780075Y-47909800D01*
X17780075Y-47909800D02*
X17756265Y-47885990D01*
X18280074Y-47885990D02*
X18303884Y-47909800D01*
X18303884Y-47909800D02*
X18280074Y-47933609D01*
X18280074Y-47933609D02*
X18256265Y-47909800D01*
X18256265Y-47909800D02*
X18280074Y-47885990D01*
X18280074Y-47885990D02*
X18280074Y-47933609D01*
X18470550Y-47433609D02*
X18780074Y-47433609D01*
X18780074Y-47433609D02*
X18613407Y-47624085D01*
X18613407Y-47624085D02*
X18684836Y-47624085D01*
X18684836Y-47624085D02*
X18732455Y-47647895D01*
X18732455Y-47647895D02*
X18756264Y-47671704D01*
X18756264Y-47671704D02*
X18780074Y-47719323D01*
X18780074Y-47719323D02*
X18780074Y-47838371D01*
X18780074Y-47838371D02*
X18756264Y-47885990D01*
X18756264Y-47885990D02*
X18732455Y-47909800D01*
X18732455Y-47909800D02*
X18684836Y-47933609D01*
X18684836Y-47933609D02*
X18541979Y-47933609D01*
X18541979Y-47933609D02*
X18494360Y-47909800D01*
X18494360Y-47909800D02*
X18470550Y-47885990D01*
X18922931Y-47433609D02*
X19089597Y-47933609D01*
X19089597Y-47933609D02*
X19256264Y-47433609D01*
X17184836Y-53743133D02*
X17565789Y-53743133D01*
X17375312Y-53933609D02*
X17375312Y-53552657D01*
X18041979Y-53433609D02*
X17803884Y-53433609D01*
X17803884Y-53433609D02*
X17780075Y-53671704D01*
X17780075Y-53671704D02*
X17803884Y-53647895D01*
X17803884Y-53647895D02*
X17851503Y-53624085D01*
X17851503Y-53624085D02*
X17970551Y-53624085D01*
X17970551Y-53624085D02*
X18018170Y-53647895D01*
X18018170Y-53647895D02*
X18041979Y-53671704D01*
X18041979Y-53671704D02*
X18065789Y-53719323D01*
X18065789Y-53719323D02*
X18065789Y-53838371D01*
X18065789Y-53838371D02*
X18041979Y-53885990D01*
X18041979Y-53885990D02*
X18018170Y-53909800D01*
X18018170Y-53909800D02*
X17970551Y-53933609D01*
X17970551Y-53933609D02*
X17851503Y-53933609D01*
X17851503Y-53933609D02*
X17803884Y-53909800D01*
X17803884Y-53909800D02*
X17780075Y-53885990D01*
X18208646Y-53433609D02*
X18375312Y-53933609D01*
X18375312Y-53933609D02*
X18541979Y-53433609D01*
X26922931Y-53433609D02*
X26684836Y-53433609D01*
X26684836Y-53433609D02*
X26661027Y-53671704D01*
X26661027Y-53671704D02*
X26684836Y-53647895D01*
X26684836Y-53647895D02*
X26732455Y-53624085D01*
X26732455Y-53624085D02*
X26851503Y-53624085D01*
X26851503Y-53624085D02*
X26899122Y-53647895D01*
X26899122Y-53647895D02*
X26922931Y-53671704D01*
X26922931Y-53671704D02*
X26946741Y-53719323D01*
X26946741Y-53719323D02*
X26946741Y-53838371D01*
X26946741Y-53838371D02*
X26922931Y-53885990D01*
X26922931Y-53885990D02*
X26899122Y-53909800D01*
X26899122Y-53909800D02*
X26851503Y-53933609D01*
X26851503Y-53933609D02*
X26732455Y-53933609D01*
X26732455Y-53933609D02*
X26684836Y-53909800D01*
X26684836Y-53909800D02*
X26661027Y-53885990D01*
X27161026Y-53885990D02*
X27184836Y-53909800D01*
X27184836Y-53909800D02*
X27161026Y-53933609D01*
X27161026Y-53933609D02*
X27137217Y-53909800D01*
X27137217Y-53909800D02*
X27161026Y-53885990D01*
X27161026Y-53885990D02*
X27161026Y-53933609D01*
X27661026Y-53933609D02*
X27375312Y-53933609D01*
X27518169Y-53933609D02*
X27518169Y-53433609D01*
X27518169Y-53433609D02*
X27470550Y-53505038D01*
X27470550Y-53505038D02*
X27422931Y-53552657D01*
X27422931Y-53552657D02*
X27375312Y-53576466D01*
X27875311Y-53933609D02*
X27875311Y-53433609D01*
X28161025Y-53933609D02*
X27946740Y-53647895D01*
X28161025Y-53433609D02*
X27875311Y-53719323D01*
X26780074Y-56433609D02*
X26827693Y-56433609D01*
X26827693Y-56433609D02*
X26875312Y-56457419D01*
X26875312Y-56457419D02*
X26899122Y-56481228D01*
X26899122Y-56481228D02*
X26922931Y-56528847D01*
X26922931Y-56528847D02*
X26946741Y-56624085D01*
X26946741Y-56624085D02*
X26946741Y-56743133D01*
X26946741Y-56743133D02*
X26922931Y-56838371D01*
X26922931Y-56838371D02*
X26899122Y-56885990D01*
X26899122Y-56885990D02*
X26875312Y-56909800D01*
X26875312Y-56909800D02*
X26827693Y-56933609D01*
X26827693Y-56933609D02*
X26780074Y-56933609D01*
X26780074Y-56933609D02*
X26732455Y-56909800D01*
X26732455Y-56909800D02*
X26708646Y-56885990D01*
X26708646Y-56885990D02*
X26684836Y-56838371D01*
X26684836Y-56838371D02*
X26661027Y-56743133D01*
X26661027Y-56743133D02*
X26661027Y-56624085D01*
X26661027Y-56624085D02*
X26684836Y-56528847D01*
X26684836Y-56528847D02*
X26708646Y-56481228D01*
X26708646Y-56481228D02*
X26732455Y-56457419D01*
X26732455Y-56457419D02*
X26780074Y-56433609D01*
X27161026Y-56885990D02*
X27184836Y-56909800D01*
X27184836Y-56909800D02*
X27161026Y-56933609D01*
X27161026Y-56933609D02*
X27137217Y-56909800D01*
X27137217Y-56909800D02*
X27161026Y-56885990D01*
X27161026Y-56885990D02*
X27161026Y-56933609D01*
X27661026Y-56933609D02*
X27375312Y-56933609D01*
X27518169Y-56933609D02*
X27518169Y-56433609D01*
X27518169Y-56433609D02*
X27470550Y-56505038D01*
X27470550Y-56505038D02*
X27422931Y-56552657D01*
X27422931Y-56552657D02*
X27375312Y-56576466D01*
X28089597Y-56600276D02*
X28089597Y-56933609D01*
X27875311Y-56600276D02*
X27875311Y-56862180D01*
X27875311Y-56862180D02*
X27899121Y-56909800D01*
X27899121Y-56909800D02*
X27946740Y-56933609D01*
X27946740Y-56933609D02*
X28018168Y-56933609D01*
X28018168Y-56933609D02*
X28065787Y-56909800D01*
X28065787Y-56909800D02*
X28089597Y-56885990D01*
X28494359Y-56671704D02*
X28327692Y-56671704D01*
X28327692Y-56933609D02*
X28327692Y-56433609D01*
X28327692Y-56433609D02*
X28565787Y-56433609D01*
X26946741Y-59933609D02*
X26661027Y-59933609D01*
X26803884Y-59933609D02*
X26803884Y-59433609D01*
X26803884Y-59433609D02*
X26756265Y-59505038D01*
X26756265Y-59505038D02*
X26708646Y-59552657D01*
X26708646Y-59552657D02*
X26661027Y-59576466D01*
X27256264Y-59433609D02*
X27303883Y-59433609D01*
X27303883Y-59433609D02*
X27351502Y-59457419D01*
X27351502Y-59457419D02*
X27375312Y-59481228D01*
X27375312Y-59481228D02*
X27399121Y-59528847D01*
X27399121Y-59528847D02*
X27422931Y-59624085D01*
X27422931Y-59624085D02*
X27422931Y-59743133D01*
X27422931Y-59743133D02*
X27399121Y-59838371D01*
X27399121Y-59838371D02*
X27375312Y-59885990D01*
X27375312Y-59885990D02*
X27351502Y-59909800D01*
X27351502Y-59909800D02*
X27303883Y-59933609D01*
X27303883Y-59933609D02*
X27256264Y-59933609D01*
X27256264Y-59933609D02*
X27208645Y-59909800D01*
X27208645Y-59909800D02*
X27184836Y-59885990D01*
X27184836Y-59885990D02*
X27161026Y-59838371D01*
X27161026Y-59838371D02*
X27137217Y-59743133D01*
X27137217Y-59743133D02*
X27137217Y-59624085D01*
X27137217Y-59624085D02*
X27161026Y-59528847D01*
X27161026Y-59528847D02*
X27184836Y-59481228D01*
X27184836Y-59481228D02*
X27208645Y-59457419D01*
X27208645Y-59457419D02*
X27256264Y-59433609D01*
X27851502Y-59600276D02*
X27851502Y-59933609D01*
X27637216Y-59600276D02*
X27637216Y-59862180D01*
X27637216Y-59862180D02*
X27661026Y-59909800D01*
X27661026Y-59909800D02*
X27708645Y-59933609D01*
X27708645Y-59933609D02*
X27780073Y-59933609D01*
X27780073Y-59933609D02*
X27827692Y-59909800D01*
X27827692Y-59909800D02*
X27851502Y-59885990D01*
X28256264Y-59671704D02*
X28089597Y-59671704D01*
X28089597Y-59933609D02*
X28089597Y-59433609D01*
X28089597Y-59433609D02*
X28327692Y-59433609D01*
X26780074Y-62433609D02*
X26827693Y-62433609D01*
X26827693Y-62433609D02*
X26875312Y-62457419D01*
X26875312Y-62457419D02*
X26899122Y-62481228D01*
X26899122Y-62481228D02*
X26922931Y-62528847D01*
X26922931Y-62528847D02*
X26946741Y-62624085D01*
X26946741Y-62624085D02*
X26946741Y-62743133D01*
X26946741Y-62743133D02*
X26922931Y-62838371D01*
X26922931Y-62838371D02*
X26899122Y-62885990D01*
X26899122Y-62885990D02*
X26875312Y-62909800D01*
X26875312Y-62909800D02*
X26827693Y-62933609D01*
X26827693Y-62933609D02*
X26780074Y-62933609D01*
X26780074Y-62933609D02*
X26732455Y-62909800D01*
X26732455Y-62909800D02*
X26708646Y-62885990D01*
X26708646Y-62885990D02*
X26684836Y-62838371D01*
X26684836Y-62838371D02*
X26661027Y-62743133D01*
X26661027Y-62743133D02*
X26661027Y-62624085D01*
X26661027Y-62624085D02*
X26684836Y-62528847D01*
X26684836Y-62528847D02*
X26708646Y-62481228D01*
X26708646Y-62481228D02*
X26732455Y-62457419D01*
X26732455Y-62457419D02*
X26780074Y-62433609D01*
X27161026Y-62885990D02*
X27184836Y-62909800D01*
X27184836Y-62909800D02*
X27161026Y-62933609D01*
X27161026Y-62933609D02*
X27137217Y-62909800D01*
X27137217Y-62909800D02*
X27161026Y-62885990D01*
X27161026Y-62885990D02*
X27161026Y-62933609D01*
X27661026Y-62933609D02*
X27375312Y-62933609D01*
X27518169Y-62933609D02*
X27518169Y-62433609D01*
X27518169Y-62433609D02*
X27470550Y-62505038D01*
X27470550Y-62505038D02*
X27422931Y-62552657D01*
X27422931Y-62552657D02*
X27375312Y-62576466D01*
X28089597Y-62600276D02*
X28089597Y-62933609D01*
X27875311Y-62600276D02*
X27875311Y-62862180D01*
X27875311Y-62862180D02*
X27899121Y-62909800D01*
X27899121Y-62909800D02*
X27946740Y-62933609D01*
X27946740Y-62933609D02*
X28018168Y-62933609D01*
X28018168Y-62933609D02*
X28065787Y-62909800D01*
X28065787Y-62909800D02*
X28089597Y-62885990D01*
X28494359Y-62671704D02*
X28327692Y-62671704D01*
X28327692Y-62933609D02*
X28327692Y-62433609D01*
X28327692Y-62433609D02*
X28565787Y-62433609D01*
X26946741Y-65933609D02*
X26661027Y-65933609D01*
X26803884Y-65933609D02*
X26803884Y-65433609D01*
X26803884Y-65433609D02*
X26756265Y-65505038D01*
X26756265Y-65505038D02*
X26708646Y-65552657D01*
X26708646Y-65552657D02*
X26661027Y-65576466D01*
X27256264Y-65433609D02*
X27303883Y-65433609D01*
X27303883Y-65433609D02*
X27351502Y-65457419D01*
X27351502Y-65457419D02*
X27375312Y-65481228D01*
X27375312Y-65481228D02*
X27399121Y-65528847D01*
X27399121Y-65528847D02*
X27422931Y-65624085D01*
X27422931Y-65624085D02*
X27422931Y-65743133D01*
X27422931Y-65743133D02*
X27399121Y-65838371D01*
X27399121Y-65838371D02*
X27375312Y-65885990D01*
X27375312Y-65885990D02*
X27351502Y-65909800D01*
X27351502Y-65909800D02*
X27303883Y-65933609D01*
X27303883Y-65933609D02*
X27256264Y-65933609D01*
X27256264Y-65933609D02*
X27208645Y-65909800D01*
X27208645Y-65909800D02*
X27184836Y-65885990D01*
X27184836Y-65885990D02*
X27161026Y-65838371D01*
X27161026Y-65838371D02*
X27137217Y-65743133D01*
X27137217Y-65743133D02*
X27137217Y-65624085D01*
X27137217Y-65624085D02*
X27161026Y-65528847D01*
X27161026Y-65528847D02*
X27184836Y-65481228D01*
X27184836Y-65481228D02*
X27208645Y-65457419D01*
X27208645Y-65457419D02*
X27256264Y-65433609D01*
X27851502Y-65600276D02*
X27851502Y-65933609D01*
X27637216Y-65600276D02*
X27637216Y-65862180D01*
X27637216Y-65862180D02*
X27661026Y-65909800D01*
X27661026Y-65909800D02*
X27708645Y-65933609D01*
X27708645Y-65933609D02*
X27780073Y-65933609D01*
X27780073Y-65933609D02*
X27827692Y-65909800D01*
X27827692Y-65909800D02*
X27851502Y-65885990D01*
X28256264Y-65671704D02*
X28089597Y-65671704D01*
X28089597Y-65933609D02*
X28089597Y-65433609D01*
X28089597Y-65433609D02*
X28327692Y-65433609D01*
X26780074Y-68433609D02*
X26827693Y-68433609D01*
X26827693Y-68433609D02*
X26875312Y-68457419D01*
X26875312Y-68457419D02*
X26899122Y-68481228D01*
X26899122Y-68481228D02*
X26922931Y-68528847D01*
X26922931Y-68528847D02*
X26946741Y-68624085D01*
X26946741Y-68624085D02*
X26946741Y-68743133D01*
X26946741Y-68743133D02*
X26922931Y-68838371D01*
X26922931Y-68838371D02*
X26899122Y-68885990D01*
X26899122Y-68885990D02*
X26875312Y-68909800D01*
X26875312Y-68909800D02*
X26827693Y-68933609D01*
X26827693Y-68933609D02*
X26780074Y-68933609D01*
X26780074Y-68933609D02*
X26732455Y-68909800D01*
X26732455Y-68909800D02*
X26708646Y-68885990D01*
X26708646Y-68885990D02*
X26684836Y-68838371D01*
X26684836Y-68838371D02*
X26661027Y-68743133D01*
X26661027Y-68743133D02*
X26661027Y-68624085D01*
X26661027Y-68624085D02*
X26684836Y-68528847D01*
X26684836Y-68528847D02*
X26708646Y-68481228D01*
X26708646Y-68481228D02*
X26732455Y-68457419D01*
X26732455Y-68457419D02*
X26780074Y-68433609D01*
X27161026Y-68885990D02*
X27184836Y-68909800D01*
X27184836Y-68909800D02*
X27161026Y-68933609D01*
X27161026Y-68933609D02*
X27137217Y-68909800D01*
X27137217Y-68909800D02*
X27161026Y-68885990D01*
X27161026Y-68885990D02*
X27161026Y-68933609D01*
X27661026Y-68933609D02*
X27375312Y-68933609D01*
X27518169Y-68933609D02*
X27518169Y-68433609D01*
X27518169Y-68433609D02*
X27470550Y-68505038D01*
X27470550Y-68505038D02*
X27422931Y-68552657D01*
X27422931Y-68552657D02*
X27375312Y-68576466D01*
X28089597Y-68600276D02*
X28089597Y-68933609D01*
X27875311Y-68600276D02*
X27875311Y-68862180D01*
X27875311Y-68862180D02*
X27899121Y-68909800D01*
X27899121Y-68909800D02*
X27946740Y-68933609D01*
X27946740Y-68933609D02*
X28018168Y-68933609D01*
X28018168Y-68933609D02*
X28065787Y-68909800D01*
X28065787Y-68909800D02*
X28089597Y-68885990D01*
X28494359Y-68671704D02*
X28327692Y-68671704D01*
X28327692Y-68933609D02*
X28327692Y-68433609D01*
X28327692Y-68433609D02*
X28565787Y-68433609D01*
X26684836Y-71823609D02*
X26684836Y-71323609D01*
X26684836Y-71323609D02*
X26803884Y-71323609D01*
X26803884Y-71323609D02*
X26875312Y-71347419D01*
X26875312Y-71347419D02*
X26922931Y-71395038D01*
X26922931Y-71395038D02*
X26946741Y-71442657D01*
X26946741Y-71442657D02*
X26970550Y-71537895D01*
X26970550Y-71537895D02*
X26970550Y-71609323D01*
X26970550Y-71609323D02*
X26946741Y-71704561D01*
X26946741Y-71704561D02*
X26922931Y-71752180D01*
X26922931Y-71752180D02*
X26875312Y-71799800D01*
X26875312Y-71799800D02*
X26803884Y-71823609D01*
X26803884Y-71823609D02*
X26684836Y-71823609D01*
X27184836Y-71823609D02*
X27184836Y-71490276D01*
X27184836Y-71323609D02*
X27161027Y-71347419D01*
X27161027Y-71347419D02*
X27184836Y-71371228D01*
X27184836Y-71371228D02*
X27208646Y-71347419D01*
X27208646Y-71347419D02*
X27184836Y-71323609D01*
X27184836Y-71323609D02*
X27184836Y-71371228D01*
X27494360Y-71823609D02*
X27446741Y-71799800D01*
X27446741Y-71799800D02*
X27422931Y-71775990D01*
X27422931Y-71775990D02*
X27399122Y-71728371D01*
X27399122Y-71728371D02*
X27399122Y-71585514D01*
X27399122Y-71585514D02*
X27422931Y-71537895D01*
X27422931Y-71537895D02*
X27446741Y-71514085D01*
X27446741Y-71514085D02*
X27494360Y-71490276D01*
X27494360Y-71490276D02*
X27565788Y-71490276D01*
X27565788Y-71490276D02*
X27613407Y-71514085D01*
X27613407Y-71514085D02*
X27637217Y-71537895D01*
X27637217Y-71537895D02*
X27661026Y-71585514D01*
X27661026Y-71585514D02*
X27661026Y-71728371D01*
X27661026Y-71728371D02*
X27637217Y-71775990D01*
X27637217Y-71775990D02*
X27613407Y-71799800D01*
X27613407Y-71799800D02*
X27565788Y-71823609D01*
X27565788Y-71823609D02*
X27494360Y-71823609D01*
X28089598Y-71823609D02*
X28089598Y-71323609D01*
X28089598Y-71799800D02*
X28041979Y-71823609D01*
X28041979Y-71823609D02*
X27946741Y-71823609D01*
X27946741Y-71823609D02*
X27899122Y-71799800D01*
X27899122Y-71799800D02*
X27875312Y-71775990D01*
X27875312Y-71775990D02*
X27851503Y-71728371D01*
X27851503Y-71728371D02*
X27851503Y-71585514D01*
X27851503Y-71585514D02*
X27875312Y-71537895D01*
X27875312Y-71537895D02*
X27899122Y-71514085D01*
X27899122Y-71514085D02*
X27946741Y-71490276D01*
X27946741Y-71490276D02*
X28041979Y-71490276D01*
X28041979Y-71490276D02*
X28089598Y-71514085D01*
X28518169Y-71799800D02*
X28470550Y-71823609D01*
X28470550Y-71823609D02*
X28375312Y-71823609D01*
X28375312Y-71823609D02*
X28327693Y-71799800D01*
X28327693Y-71799800D02*
X28303884Y-71752180D01*
X28303884Y-71752180D02*
X28303884Y-71561704D01*
X28303884Y-71561704D02*
X28327693Y-71514085D01*
X28327693Y-71514085D02*
X28375312Y-71490276D01*
X28375312Y-71490276D02*
X28470550Y-71490276D01*
X28470550Y-71490276D02*
X28518169Y-71514085D01*
X28518169Y-71514085D02*
X28541979Y-71561704D01*
X28541979Y-71561704D02*
X28541979Y-71609323D01*
X28541979Y-71609323D02*
X28303884Y-71656942D01*
D11*
%TO.C,R1*%
X27272936Y-78265000D02*
X27727064Y-78265000D01*
X27272936Y-79735000D02*
X27727064Y-79735000D01*
%TO.C,TP2*%
X20750000Y-50000000D02*
G75*
G02*
X17250000Y-50000000I-1750000J0D01*
G01*
X17250000Y-50000000D02*
G75*
G02*
X20750000Y-50000000I1750000J0D01*
G01*
%TO.C,TP1*%
X20750000Y-44000000D02*
G75*
G02*
X17250000Y-44000000I-1750000J0D01*
G01*
X17250000Y-44000000D02*
G75*
G02*
X20750000Y-44000000I1750000J0D01*
G01*
%TO.C,SW1*%
X17430000Y-34930000D02*
X21570000Y-34930000D01*
X17430000Y-35230000D02*
X17430000Y-34930000D01*
X17430000Y-38070000D02*
X17430000Y-37770000D01*
X21570000Y-34930000D02*
X21570000Y-35230000D01*
X21570000Y-37770000D02*
X21570000Y-38070000D01*
X21570000Y-38070000D02*
X17430000Y-38070000D01*
%TO.C,C4*%
X27761252Y-69265000D02*
X27238748Y-69265000D01*
X27761252Y-70735000D02*
X27238748Y-70735000D01*
%TO.C,D1*%
X26500000Y-73960000D02*
X29360000Y-73960000D01*
X29360000Y-72040000D02*
X26500000Y-72040000D01*
X29360000Y-73960000D02*
X29360000Y-72040000D01*
%TO.C,C2*%
X27761252Y-66265000D02*
X27238748Y-66265000D01*
X27761252Y-67735000D02*
X27238748Y-67735000D01*
%TO.C,TP3*%
X20750000Y-56000000D02*
G75*
G02*
X17250000Y-56000000I-1750000J0D01*
G01*
X17250000Y-56000000D02*
G75*
G02*
X20750000Y-56000000I1750000J0D01*
G01*
%TO.C,U2*%
X24650000Y-44090000D02*
X28410000Y-44090000D01*
X24650000Y-50910000D02*
X28410000Y-50910000D01*
X28410000Y-44090000D02*
X28410000Y-45350000D01*
X28410000Y-50910000D02*
X28410000Y-49650000D01*
X23370000Y-44190000D02*
X23130000Y-43860000D01*
X23610000Y-43860000D01*
X23370000Y-44190000D01*
G36*
X23370000Y-44190000D02*
G01*
X23130000Y-43860000D01*
X23610000Y-43860000D01*
X23370000Y-44190000D01*
G37*
%TO.C,SW2*%
X17430000Y-26430000D02*
X21570000Y-26430000D01*
X17430000Y-26730000D02*
X17430000Y-26430000D01*
X17430000Y-29570000D02*
X17430000Y-29270000D01*
X21570000Y-26430000D02*
X21570000Y-26730000D01*
X21570000Y-29270000D02*
X21570000Y-29570000D01*
X21570000Y-29570000D02*
X17430000Y-29570000D01*
%TO.C,R2*%
X27727064Y-75265000D02*
X27272936Y-75265000D01*
X27727064Y-76735000D02*
X27272936Y-76735000D01*
%TO.C,U1*%
X28550000Y-15220000D02*
X28550000Y-21020000D01*
X28550000Y-15220000D02*
X46950000Y-15220000D01*
X28550000Y-39670000D02*
X28550000Y-40670000D01*
X28550000Y-40670000D02*
X30050000Y-40670000D01*
X46950000Y-15220000D02*
X46950000Y-21020000D01*
X46950000Y-40670000D02*
X45450000Y-40670000D01*
X46950000Y-40670000D02*
X46950000Y-39670000D01*
X28550000Y-21695000D02*
X28050000Y-21695000D01*
X28550000Y-21195000D01*
X28550000Y-21695000D01*
G36*
X28550000Y-21695000D02*
G01*
X28050000Y-21695000D01*
X28550000Y-21195000D01*
X28550000Y-21695000D01*
G37*
%TO.C,J2*%
X24270000Y-20590000D02*
X25600000Y-20590000D01*
X24270000Y-21920000D02*
X24270000Y-20590000D01*
X24270000Y-23190000D02*
X24270000Y-41030000D01*
X24270000Y-23190000D02*
X26930000Y-23190000D01*
X24270000Y-41030000D02*
X26930000Y-41030000D01*
X26930000Y-23190000D02*
X26930000Y-41030000D01*
%TO.C,C7*%
X27761252Y-60265000D02*
X27238748Y-60265000D01*
X27761252Y-61735000D02*
X27238748Y-61735000D01*
%TO.C,C9*%
X27761252Y-57265000D02*
X27238748Y-57265000D01*
X27761252Y-58735000D02*
X27238748Y-58735000D01*
%TO.C,R6*%
X27272936Y-54265000D02*
X27727064Y-54265000D01*
X27272936Y-55735000D02*
X27727064Y-55735000D01*
%TO.C,C8*%
X27761252Y-63265000D02*
X27238748Y-63265000D01*
X27761252Y-64735000D02*
X27238748Y-64735000D01*
%TD*%
M02*
