%TF.GenerationSoftware,KiCad,Pcbnew,9.0.0*%
%TF.CreationDate,2025-03-13T15:17:37+10:00*%
%TF.ProjectId,Version 1,56657273-696f-46e2-9031-2e6b69636164,rev?*%
%TF.SameCoordinates,Original*%
%TF.FileFunction,Copper,L1,Top*%
%TF.FilePolarity,Positive*%
%FSLAX46Y46*%
G04 Gerber Fmt 4.6, Leading zero omitted, Abs format (unit mm)*
G04 Created by KiCad (PCBNEW 9.0.0) date 2025-03-13 15:17:37*
%MOMM*%
%LPD*%
G01*
G04 APERTURE LIST*
G04 Aperture macros list*
%AMRoundRect*
0 Rectangle with rounded corners*
0 $1 Rounding radius*
0 $2 $3 $4 $5 $6 $7 $8 $9 X,Y pos of 4 corners*
0 Add a 4 corners polygon primitive as box body*
4,1,4,$2,$3,$4,$5,$6,$7,$8,$9,$2,$3,0*
0 Add four circle primitives for the rounded corners*
1,1,$1+$1,$2,$3*
1,1,$1+$1,$4,$5*
1,1,$1+$1,$6,$7*
1,1,$1+$1,$8,$9*
0 Add four rect primitives between the rounded corners*
20,1,$1+$1,$2,$3,$4,$5,0*
20,1,$1+$1,$4,$5,$6,$7,0*
20,1,$1+$1,$6,$7,$8,$9,0*
20,1,$1+$1,$8,$9,$2,$3,0*%
G04 Aperture macros list end*
%TA.AperFunction,ComponentPad*%
%ADD10O,1.700000X1.700000*%
%TD*%
%TA.AperFunction,SMDPad,CuDef*%
%ADD11R,1.150000X0.600000*%
%TD*%
%TA.AperFunction,SMDPad,CuDef*%
%ADD12R,1.150000X0.300000*%
%TD*%
%TA.AperFunction,ComponentPad*%
%ADD13O,2.100000X1.000000*%
%TD*%
%TA.AperFunction,ComponentPad*%
%ADD14O,1.800000X1.000000*%
%TD*%
%TA.AperFunction,SMDPad,CuDef*%
%ADD15RoundRect,0.250000X-0.350000X-0.450000X0.350000X-0.450000X0.350000X0.450000X-0.350000X0.450000X0*%
%TD*%
%TA.AperFunction,SMDPad,CuDef*%
%ADD16C,3.000000*%
%TD*%
%TA.AperFunction,SMDPad,CuDef*%
%ADD17RoundRect,0.200000X-0.200000X-0.800000X0.200000X-0.800000X0.200000X0.800000X-0.200000X0.800000X0*%
%TD*%
%TA.AperFunction,SMDPad,CuDef*%
%ADD18RoundRect,0.250000X0.337500X0.475000X-0.337500X0.475000X-0.337500X-0.475000X0.337500X-0.475000X0*%
%TD*%
%TA.AperFunction,SMDPad,CuDef*%
%ADD19RoundRect,0.250000X0.325000X0.450000X-0.325000X0.450000X-0.325000X-0.450000X0.325000X-0.450000X0*%
%TD*%
%TA.AperFunction,SMDPad,CuDef*%
%ADD20RoundRect,0.375000X-0.625000X-0.375000X0.625000X-0.375000X0.625000X0.375000X-0.625000X0.375000X0*%
%TD*%
%TA.AperFunction,SMDPad,CuDef*%
%ADD21RoundRect,0.500000X-0.500000X-1.400000X0.500000X-1.400000X0.500000X1.400000X-0.500000X1.400000X0*%
%TD*%
%TA.AperFunction,SMDPad,CuDef*%
%ADD22RoundRect,0.250000X0.350000X0.450000X-0.350000X0.450000X-0.350000X-0.450000X0.350000X-0.450000X0*%
%TD*%
%TA.AperFunction,SMDPad,CuDef*%
%ADD23R,1.500000X0.900000*%
%TD*%
%TA.AperFunction,SMDPad,CuDef*%
%ADD24R,0.900000X1.500000*%
%TD*%
%TA.AperFunction,HeatsinkPad*%
%ADD25C,0.600000*%
%TD*%
%TA.AperFunction,HeatsinkPad*%
%ADD26R,3.900000X3.900000*%
%TD*%
%TA.AperFunction,ComponentPad*%
%ADD27R,1.700000X1.700000*%
%TD*%
%TA.AperFunction,ViaPad*%
%ADD28C,0.600000*%
%TD*%
%TA.AperFunction,Conductor*%
%ADD29C,0.400000*%
%TD*%
%TA.AperFunction,Conductor*%
%ADD30C,0.200000*%
%TD*%
G04 APERTURE END LIST*
D10*
%TO.P,J3,1,Pin_1*%
%TO.N,IO40*%
X62000000Y-18460000D03*
%TO.P,J3,2,Pin_2*%
%TO.N,IO35*%
X62000000Y-21000000D03*
%TO.P,J3,3,Pin_3*%
%TO.N,IO41*%
X59460000Y-18460000D03*
%TO.P,J3,4,Pin_4*%
%TO.N,IO36*%
X59460000Y-21000000D03*
%TO.P,J3,5,Pin_5*%
%TO.N,IO42*%
X56920000Y-18460000D03*
%TO.P,J3,6,Pin_6*%
%TO.N,IO37*%
X56920000Y-21000000D03*
%TO.P,J3,7,Pin_7*%
%TO.N,IO2*%
X54380000Y-18460000D03*
%TO.P,J3,8,Pin_8*%
%TO.N,IO38*%
X54380000Y-21000000D03*
%TO.P,J3,9,Pin_9*%
%TO.N,IO1*%
X51840000Y-18460000D03*
%TO.P,J3,10,Pin_10*%
%TO.N,IO39*%
X51840000Y-21000000D03*
%TD*%
D11*
%TO.P,J1,A1_B12,GND*%
%TO.N,GND*%
X22255000Y-63800000D03*
%TO.P,J1,A4_B9,VBUS*%
%TO.N,Net-(D1-A)*%
X22255000Y-64600000D03*
D12*
%TO.P,J1,A5,CC1*%
%TO.N,Net-(J1-CC1)*%
X22255000Y-65750000D03*
%TO.P,J1,A6,DP1*%
%TO.N,D+*%
X22255000Y-66750000D03*
%TO.P,J1,A7,DN1*%
%TO.N,D-*%
X22255000Y-67250000D03*
%TO.P,J1,A8,SBU1*%
%TO.N,unconnected-(J1-SBU1-PadA8)*%
X22255000Y-68250000D03*
D11*
%TO.P,J1,B1_A12,GND*%
%TO.N,GND*%
X22255000Y-70200000D03*
%TO.P,J1,B4_A9,VBUS*%
%TO.N,Net-(D1-A)*%
X22255000Y-69400000D03*
D12*
%TO.P,J1,B5,CC2*%
%TO.N,Net-(J1-CC2)*%
X22255000Y-68750000D03*
%TO.P,J1,B6,DP2*%
%TO.N,D+*%
X22255000Y-67750000D03*
%TO.P,J1,B7,DN2*%
%TO.N,D-*%
X22255000Y-66250000D03*
%TO.P,J1,B8,SBU2*%
%TO.N,unconnected-(J1-SBU2-PadB8)*%
X22255000Y-65250000D03*
D13*
%TO.P,J1,SH1,SHELL_GND*%
%TO.N,GND*%
X21680000Y-62680000D03*
%TO.P,J1,SH2,SHELL_GND*%
X21680000Y-71320000D03*
D14*
%TO.P,J1,SH3,SHELL_GND*%
X17500000Y-62680000D03*
%TO.P,J1,SH4,SHELL_GND*%
X17500000Y-71320000D03*
%TD*%
D15*
%TO.P,R1,1*%
%TO.N,Net-(J1-CC2)*%
X26500000Y-79000000D03*
%TO.P,R1,2*%
%TO.N,GND*%
X28500000Y-79000000D03*
%TD*%
D16*
%TO.P,TP2,1,1*%
%TO.N,+3.3V*%
X19000000Y-50000000D03*
%TD*%
%TO.P,TP1,1,1*%
%TO.N,GND*%
X19000000Y-44000000D03*
%TD*%
D17*
%TO.P,SW1,1,1*%
%TO.N,GND*%
X17400000Y-36500000D03*
%TO.P,SW1,2,2*%
%TO.N,BOOT*%
X21600000Y-36500000D03*
%TD*%
D18*
%TO.P,C4,1*%
%TO.N,+5V*%
X28537500Y-70000000D03*
%TO.P,C4,2*%
%TO.N,GND*%
X26462500Y-70000000D03*
%TD*%
D19*
%TO.P,D1,1,K*%
%TO.N,+5V*%
X28525000Y-73000000D03*
%TO.P,D1,2,A*%
%TO.N,Net-(D1-A)*%
X26475000Y-73000000D03*
%TD*%
D18*
%TO.P,C2,1*%
%TO.N,+3.3V*%
X28537500Y-67000000D03*
%TO.P,C2,2*%
%TO.N,GND*%
X26462500Y-67000000D03*
%TD*%
D16*
%TO.P,TP3,1,1*%
%TO.N,+5V*%
X19000000Y-56000000D03*
%TD*%
D20*
%TO.P,U2,1,GND*%
%TO.N,GND*%
X23350000Y-45200000D03*
%TO.P,U2,2,VO*%
%TO.N,+3.3V*%
X23350000Y-47500000D03*
D21*
X29650000Y-47500000D03*
D20*
%TO.P,U2,3,VI*%
%TO.N,+5V*%
X23350000Y-49800000D03*
%TD*%
D17*
%TO.P,SW2,1,1*%
%TO.N,GND*%
X17400000Y-28000000D03*
%TO.P,SW2,2,2*%
%TO.N,EN*%
X21600000Y-28000000D03*
%TD*%
D22*
%TO.P,R2,1*%
%TO.N,GND*%
X28500000Y-76000000D03*
%TO.P,R2,2*%
%TO.N,Net-(J1-CC1)*%
X26500000Y-76000000D03*
%TD*%
D23*
%TO.P,U1,1,GND*%
%TO.N,GND*%
X29000000Y-22460000D03*
%TO.P,U1,2,3V3*%
%TO.N,+3.3V*%
X29000000Y-23730000D03*
%TO.P,U1,3,EN*%
%TO.N,EN*%
X29000000Y-25000000D03*
%TO.P,U1,4,IO4*%
%TO.N,IO4*%
X29000000Y-26270000D03*
%TO.P,U1,5,IO5*%
%TO.N,IO5*%
X29000000Y-27540000D03*
%TO.P,U1,6,IO6*%
%TO.N,IO6*%
X29000000Y-28810000D03*
%TO.P,U1,7,IO7*%
%TO.N,IO7*%
X29000000Y-30080000D03*
%TO.P,U1,8,IO15*%
%TO.N,IO15*%
X29000000Y-31350000D03*
%TO.P,U1,9,IO16*%
%TO.N,IO16*%
X29000000Y-32620000D03*
%TO.P,U1,10,IO17*%
%TO.N,IO17*%
X29000000Y-33890000D03*
%TO.P,U1,11,IO18*%
%TO.N,IO18*%
X29000000Y-35160000D03*
%TO.P,U1,12,IO8*%
%TO.N,IO8*%
X29000000Y-36430000D03*
%TO.P,U1,13,USB_D-*%
%TO.N,D-*%
X29000000Y-37700000D03*
%TO.P,U1,14,USB_D+*%
%TO.N,D+*%
X29000000Y-38970000D03*
D24*
%TO.P,U1,15,IO3*%
%TO.N,unconnected-(U1-IO3-Pad15)*%
X30765000Y-40220000D03*
%TO.P,U1,16,IO46*%
%TO.N,unconnected-(U1-IO46-Pad16)*%
X32035000Y-40220000D03*
%TO.P,U1,17,IO9*%
%TO.N,IO9*%
X33305000Y-40220000D03*
%TO.P,U1,18,IO10*%
%TO.N,IO10*%
X34575000Y-40220000D03*
%TO.P,U1,19,IO11*%
%TO.N,IO11*%
X35845000Y-40220000D03*
%TO.P,U1,20,IO12*%
%TO.N,IO12*%
X37115000Y-40220000D03*
%TO.P,U1,21,IO13*%
%TO.N,IO13*%
X38385000Y-40220000D03*
%TO.P,U1,22,IO14*%
%TO.N,IO14*%
X39655000Y-40220000D03*
%TO.P,U1,23,IO21*%
%TO.N,IO21*%
X40925000Y-40220000D03*
%TO.P,U1,24,IO47*%
%TO.N,IO47*%
X42195000Y-40220000D03*
%TO.P,U1,25,IO48*%
%TO.N,IO48*%
X43465000Y-40220000D03*
%TO.P,U1,26,IO45*%
%TO.N,unconnected-(U1-IO45-Pad26)*%
X44735000Y-40220000D03*
D23*
%TO.P,U1,27,IO0*%
%TO.N,BOOT*%
X46500000Y-38970000D03*
%TO.P,U1,28,IO35*%
%TO.N,IO35*%
X46500000Y-37700000D03*
%TO.P,U1,29,IO36*%
%TO.N,IO36*%
X46500000Y-36430000D03*
%TO.P,U1,30,IO37*%
%TO.N,IO37*%
X46500000Y-35160000D03*
%TO.P,U1,31,IO38*%
%TO.N,IO38*%
X46500000Y-33890000D03*
%TO.P,U1,32,IO39*%
%TO.N,IO39*%
X46500000Y-32620000D03*
%TO.P,U1,33,IO40*%
%TO.N,IO40*%
X46500000Y-31350000D03*
%TO.P,U1,34,IO41*%
%TO.N,IO41*%
X46500000Y-30080000D03*
%TO.P,U1,35,IO42*%
%TO.N,IO42*%
X46500000Y-28810000D03*
%TO.P,U1,36,RXD0*%
%TO.N,RXD0*%
X46500000Y-27540000D03*
%TO.P,U1,37,TXD0*%
%TO.N,TXD0*%
X46500000Y-26270000D03*
%TO.P,U1,38,IO2*%
%TO.N,IO2*%
X46500000Y-25000000D03*
%TO.P,U1,39,IO1*%
%TO.N,IO1*%
X46500000Y-23730000D03*
%TO.P,U1,40,GND*%
%TO.N,GND*%
X46500000Y-22460000D03*
D25*
%TO.P,U1,41,GND*%
X34850000Y-29480000D03*
X34850000Y-30880000D03*
X35550000Y-28780000D03*
X35550000Y-30180000D03*
X35550000Y-31580000D03*
X36250000Y-29480000D03*
D26*
X36250000Y-30180000D03*
D25*
X36250000Y-30880000D03*
X36950000Y-28780000D03*
X36950000Y-30180000D03*
X36950000Y-31580000D03*
X37650000Y-29480000D03*
X37650000Y-30880000D03*
%TD*%
D27*
%TO.P,J2,1,Pin_1*%
%TO.N,GND*%
X25600000Y-21920000D03*
D10*
%TO.P,J2,2,Pin_2*%
%TO.N,+3.3V*%
X25600000Y-24460000D03*
%TO.P,J2,3,Pin_3*%
%TO.N,EN*%
X25600000Y-27000000D03*
%TO.P,J2,4,Pin_4*%
%TO.N,TXD0*%
X25600000Y-29540000D03*
%TO.P,J2,5,Pin_5*%
%TO.N,RXD0*%
X25600000Y-32080000D03*
%TO.P,J2,6,Pin_6*%
%TO.N,D-*%
X25600000Y-34620000D03*
%TO.P,J2,7,Pin_7*%
%TO.N,D+*%
X25600000Y-37160000D03*
%TO.P,J2,8,Pin_8*%
%TO.N,BOOT*%
X25600000Y-39700000D03*
%TD*%
D18*
%TO.P,C7,1*%
%TO.N,EN*%
X28537500Y-61000000D03*
%TO.P,C7,2*%
%TO.N,GND*%
X26462500Y-61000000D03*
%TD*%
%TO.P,C9,1*%
%TO.N,EN*%
X28537500Y-58000000D03*
%TO.P,C9,2*%
%TO.N,GND*%
X26462500Y-58000000D03*
%TD*%
D15*
%TO.P,R6,1*%
%TO.N,EN*%
X26500000Y-55000000D03*
%TO.P,R6,2*%
%TO.N,+3.3V*%
X28500000Y-55000000D03*
%TD*%
D18*
%TO.P,C8,1*%
%TO.N,BOOT*%
X28537500Y-64000000D03*
%TO.P,C8,2*%
%TO.N,GND*%
X26462500Y-64000000D03*
%TD*%
D28*
%TO.N,+3.3V*%
X30500000Y-63500000D03*
X30500000Y-60500000D03*
X33500000Y-38500000D03*
X33500000Y-42071000D03*
%TO.N,GND*%
X43000000Y-24000000D03*
X17500000Y-32500000D03*
X39000000Y-28500000D03*
X19500000Y-66500000D03*
X25500000Y-69000000D03*
X22150000Y-44000000D03*
%TO.N,EN*%
X25000000Y-48500000D03*
X25000000Y-46500000D03*
X21000000Y-40500000D03*
X19500000Y-39000000D03*
%TO.N,BOOT*%
X22000000Y-39500000D03*
X20500000Y-38500000D03*
%TO.N,Net-(J1-CC1)*%
X23250961Y-65674281D03*
X24370025Y-71529975D03*
%TO.N,Net-(J1-CC2)*%
X25159975Y-70340025D03*
X24500000Y-73000000D03*
%TO.N,RXD0*%
X31000000Y-32000000D03*
%TO.N,TXD0*%
X31000000Y-29500000D03*
%TO.N,IO37*%
X45000000Y-35000000D03*
%TO.N,IO38*%
X45000000Y-33500000D03*
%TO.N,IO2*%
X45349000Y-21609000D03*
X44500000Y-23500000D03*
%TO.N,IO42*%
X44500000Y-27000000D03*
X49755025Y-17755025D03*
%TO.N,IO40*%
X48000000Y-19000000D03*
X42799000Y-28500000D03*
%TO.N,IO39*%
X44300000Y-32000000D03*
%TO.N,IO41*%
X57500000Y-17000000D03*
X43500000Y-27500000D03*
%TD*%
D29*
%TO.N,+3.3V*%
X23350000Y-47500000D02*
X21500000Y-47500000D01*
X21500000Y-47500000D02*
X19000000Y-50000000D01*
X28500000Y-48650000D02*
X29650000Y-47500000D01*
X29650000Y-45921000D02*
X33500000Y-42071000D01*
X30500000Y-57000000D02*
X28500000Y-55000000D01*
X26330000Y-23730000D02*
X25600000Y-24460000D01*
X29000000Y-23730000D02*
X26330000Y-23730000D01*
X33500000Y-38500000D02*
X30299000Y-35299000D01*
X28537500Y-67000000D02*
X30500000Y-65037500D01*
X30299000Y-35299000D02*
X30299000Y-23879000D01*
X30500000Y-60500000D02*
X30500000Y-57000000D01*
X29650000Y-47500000D02*
X23350000Y-47500000D01*
X30150000Y-23730000D02*
X29000000Y-23730000D01*
X30500000Y-65037500D02*
X30500000Y-63500000D01*
X30299000Y-23879000D02*
X30150000Y-23730000D01*
X29650000Y-47500000D02*
X29650000Y-45921000D01*
X28500000Y-55000000D02*
X28500000Y-48650000D01*
%TO.N,GND*%
X26462500Y-70000000D02*
X26462500Y-69962500D01*
X29000000Y-22460000D02*
X26140000Y-22460000D01*
X21680000Y-62680000D02*
X21230000Y-62680000D01*
X28500000Y-76000000D02*
X27549000Y-75049000D01*
X22150000Y-44000000D02*
X23350000Y-45200000D01*
X38020000Y-29480000D02*
X39000000Y-28500000D01*
X21230000Y-62680000D02*
X19500000Y-64410000D01*
X22255000Y-70745000D02*
X21680000Y-71320000D01*
X28500000Y-79000000D02*
X28500000Y-76000000D01*
X22255000Y-63800000D02*
X22255000Y-63255000D01*
X26462500Y-67000000D02*
X26462500Y-64000000D01*
X26140000Y-22460000D02*
X25600000Y-21920000D01*
X45510051Y-22500000D02*
X45500000Y-22500000D01*
X26462500Y-58000000D02*
X26462500Y-61000000D01*
X45550051Y-22460000D02*
X45510051Y-22500000D01*
X17400000Y-28000000D02*
X17400000Y-32400000D01*
X37650000Y-29480000D02*
X38020000Y-29480000D01*
X26462500Y-69962500D02*
X25500000Y-69000000D01*
X27549000Y-71086500D02*
X26462500Y-70000000D01*
X22255000Y-70200000D02*
X22255000Y-70745000D01*
X46500000Y-22460000D02*
X45550051Y-22460000D01*
X45500000Y-22500000D02*
X45201000Y-22799000D01*
X44201000Y-22799000D02*
X43000000Y-24000000D01*
X19500000Y-64410000D02*
X19500000Y-66500000D01*
X26462500Y-70000000D02*
X26462500Y-67000000D01*
X26462500Y-61000000D02*
X26462500Y-64000000D01*
X17400000Y-32600000D02*
X17500000Y-32500000D01*
X27549000Y-75049000D02*
X27549000Y-71086500D01*
X45201000Y-22799000D02*
X44201000Y-22799000D01*
X17400000Y-32400000D02*
X17500000Y-32500000D01*
X17400000Y-36500000D02*
X17400000Y-32600000D01*
X19000000Y-44000000D02*
X22150000Y-44000000D01*
X22255000Y-63255000D02*
X21680000Y-62680000D01*
%TO.N,+5V*%
X27500000Y-57297420D02*
X26702580Y-56500000D01*
X19000000Y-56000000D02*
X19000000Y-55500000D01*
X27500000Y-68962500D02*
X27500000Y-57297420D01*
X26702580Y-56500000D02*
X19500000Y-56500000D01*
X23350000Y-51150000D02*
X23350000Y-49800000D01*
X28525000Y-73000000D02*
X28525000Y-70012500D01*
X28537500Y-70000000D02*
X27500000Y-68962500D01*
X19500000Y-56500000D02*
X19000000Y-56000000D01*
X19000000Y-55500000D02*
X23350000Y-51150000D01*
X28525000Y-70012500D02*
X28537500Y-70000000D01*
%TO.N,EN*%
X21600000Y-28000000D02*
X19500000Y-30100000D01*
X28537500Y-57037500D02*
X26500000Y-55000000D01*
X26500000Y-55000000D02*
X25000000Y-53500000D01*
X25000000Y-41755484D02*
X22255484Y-41755484D01*
X19500000Y-30100000D02*
X19500000Y-39000000D01*
X29000000Y-25000000D02*
X27600000Y-25000000D01*
X22600000Y-27000000D02*
X25600000Y-27000000D01*
X25000000Y-53500000D02*
X25000000Y-48500000D01*
X22255484Y-41755484D02*
X21000000Y-40500000D01*
X21600000Y-28000000D02*
X22600000Y-27000000D01*
X25000000Y-46500000D02*
X25000000Y-41755484D01*
X28537500Y-61000000D02*
X28537500Y-58000000D01*
X27600000Y-25000000D02*
X25600000Y-27000000D01*
X28537500Y-58000000D02*
X28537500Y-57037500D01*
%TO.N,BOOT*%
X22200000Y-39700000D02*
X22000000Y-39500000D01*
X21600000Y-37400000D02*
X20500000Y-38500000D01*
X25600000Y-39700000D02*
X27271000Y-41371000D01*
X25600000Y-39700000D02*
X22200000Y-39700000D01*
X31799000Y-60738500D02*
X31799000Y-45201000D01*
X45586000Y-41371000D02*
X46500000Y-40457000D01*
X27271000Y-41371000D02*
X35000000Y-41371000D01*
X35000000Y-41371000D02*
X45586000Y-41371000D01*
X31799000Y-45201000D02*
X35000000Y-42000000D01*
X28537500Y-64000000D02*
X31799000Y-60738500D01*
X35000000Y-42000000D02*
X35000000Y-41371000D01*
X46500000Y-40457000D02*
X46500000Y-38970000D01*
X21600000Y-36500000D02*
X21600000Y-37400000D01*
D30*
%TO.N,D+*%
X23734900Y-61234900D02*
X23500000Y-61000000D01*
D29*
X29000000Y-38970000D02*
X27410000Y-38970000D01*
D30*
X24500000Y-62000000D02*
X24265100Y-61765100D01*
X23500000Y-61000000D02*
X23167800Y-61000000D01*
X24434000Y-66465100D02*
X24500000Y-66399100D01*
X24199100Y-66700000D02*
X24265100Y-66634000D01*
X24500000Y-66066900D02*
X24500000Y-62332200D01*
X24265100Y-66634000D02*
X24434000Y-66465100D01*
X23167800Y-61000000D02*
X21453001Y-61000000D01*
X24500000Y-62332200D02*
X24500000Y-62000000D01*
X21453001Y-61000000D02*
X17199000Y-56745999D01*
X21379000Y-67701000D02*
X21379000Y-66799000D01*
X23149100Y-67750000D02*
X23248100Y-67651000D01*
X21379000Y-66799000D02*
X21428000Y-66750000D01*
X21428000Y-66750000D02*
X22255000Y-66750000D01*
D29*
X27410000Y-38970000D02*
X25600000Y-37160000D01*
D30*
X23532000Y-67367100D02*
X24199100Y-66700000D01*
X24265100Y-61765100D02*
X23734900Y-61234900D01*
X17199000Y-56745999D02*
X17199000Y-43254001D01*
X21428000Y-67750000D02*
X21379000Y-67701000D01*
X20953001Y-39500000D02*
X23293001Y-37160000D01*
X22255000Y-67750000D02*
X21428000Y-67750000D01*
X22255000Y-67750000D02*
X23149100Y-67750000D01*
X23293001Y-37160000D02*
X25600000Y-37160000D01*
X17199000Y-43254001D02*
X20953001Y-39500000D01*
X23248100Y-67651000D02*
X23297100Y-67602000D01*
X23297100Y-67602000D02*
X23483000Y-67416100D01*
X23483000Y-67416100D02*
X23532000Y-67367100D01*
X24500000Y-66399100D02*
X24500000Y-66066900D01*
D29*
%TO.N,Net-(D1-A)*%
X26475000Y-72645000D02*
X26475000Y-73000000D01*
X21378000Y-69400000D02*
X20878000Y-68900000D01*
X20878000Y-68900000D02*
X20878000Y-65002000D01*
X22255000Y-69400000D02*
X23230000Y-69400000D01*
X21280000Y-64600000D02*
X22255000Y-64600000D01*
X22255000Y-69400000D02*
X21378000Y-69400000D01*
X20878000Y-65002000D02*
X21280000Y-64600000D01*
X23230000Y-69400000D02*
X26475000Y-72645000D01*
D30*
%TO.N,D-*%
X23433951Y-36759000D02*
X25572951Y-34620000D01*
X17032900Y-42853001D02*
X20552001Y-39333900D01*
X16798000Y-43087901D02*
X17032900Y-42853001D01*
X23333900Y-61401000D02*
X23001700Y-61401000D01*
X21052001Y-61166100D02*
X17032900Y-57146999D01*
X25572951Y-34620000D02*
X25600000Y-34620000D01*
X17032900Y-57146999D02*
X16798000Y-56912099D01*
X23001700Y-61401000D02*
X21619101Y-61401000D01*
X16798000Y-56912099D02*
X16798000Y-56579899D01*
X16798000Y-43420101D02*
X16798000Y-43394951D01*
X20552001Y-39333900D02*
X20786901Y-39099000D01*
X24099000Y-65900800D02*
X24099000Y-62498300D01*
X23131000Y-66299000D02*
X23131000Y-67201000D01*
D29*
X25600000Y-35032000D02*
X25600000Y-34620000D01*
D30*
X16798000Y-56579899D02*
X16798000Y-43420101D01*
X23864100Y-61931200D02*
X23568800Y-61635900D01*
D29*
X29000000Y-37700000D02*
X28268000Y-37700000D01*
D30*
X24099000Y-66233000D02*
X24099000Y-65900800D01*
X24099000Y-62498300D02*
X24099000Y-62166100D01*
X20786901Y-39099000D02*
X22892001Y-36993900D01*
X23126901Y-36759000D02*
X23433951Y-36759000D01*
X21286901Y-61401000D02*
X21052001Y-61166100D01*
X23082000Y-67250000D02*
X22255000Y-67250000D01*
X23568800Y-61635900D02*
X23333900Y-61401000D01*
X23131000Y-66299000D02*
X24033000Y-66299000D01*
X16798000Y-43394951D02*
X16798000Y-43087901D01*
X22892001Y-36993900D02*
X23126901Y-36759000D01*
X24033000Y-66299000D02*
X24099000Y-66233000D01*
X23131000Y-67201000D02*
X23082000Y-67250000D01*
X22255000Y-66250000D02*
X23082000Y-66250000D01*
D29*
X28268000Y-37700000D02*
X25600000Y-35032000D01*
D30*
X21619101Y-61401000D02*
X21286901Y-61401000D01*
X23082000Y-66250000D02*
X23131000Y-66299000D01*
X24099000Y-62166100D02*
X23864100Y-61931200D01*
%TO.N,Net-(J1-CC1)*%
X25101000Y-72260950D02*
X25101000Y-74601000D01*
X23149100Y-65750000D02*
X22255000Y-65750000D01*
X24370025Y-71529975D02*
X25101000Y-72260950D01*
X23250961Y-65674281D02*
X23224819Y-65674281D01*
X25101000Y-74601000D02*
X26500000Y-76000000D01*
X23224819Y-65674281D02*
X23149100Y-65750000D01*
%TO.N,Net-(J1-CC2)*%
X24500000Y-77000000D02*
X26500000Y-79000000D01*
X24500000Y-73000000D02*
X24500000Y-77000000D01*
X22255000Y-68750000D02*
X23569950Y-68750000D01*
X23569950Y-68750000D02*
X25159975Y-70340025D01*
D29*
%TO.N,RXD0*%
X31000000Y-30728000D02*
X35429000Y-26299000D01*
X45350000Y-26858636D02*
X45350000Y-27540000D01*
X45350000Y-27540000D02*
X46500000Y-27540000D01*
X35429000Y-26299000D02*
X44790364Y-26299000D01*
X44790364Y-26299000D02*
X45350000Y-26858636D01*
X31000000Y-32000000D02*
X31000000Y-30728000D01*
%TO.N,TXD0*%
X46500000Y-26270000D02*
X45770000Y-26270000D01*
X34802000Y-25698000D02*
X31000000Y-29500000D01*
X45770000Y-26270000D02*
X45198000Y-25698000D01*
X45198000Y-25698000D02*
X34802000Y-25698000D01*
%TO.N,IO37*%
X45160000Y-35160000D02*
X45000000Y-35000000D01*
X46500000Y-35160000D02*
X45160000Y-35160000D01*
%TO.N,IO36*%
X51251058Y-23399000D02*
X47650000Y-27000058D01*
X47650000Y-27000058D02*
X47650000Y-36430000D01*
X47650000Y-36430000D02*
X46500000Y-36430000D01*
X59460000Y-21000000D02*
X57061000Y-23399000D01*
X57061000Y-23399000D02*
X51251058Y-23399000D01*
%TO.N,IO35*%
X60000000Y-24000000D02*
X62000000Y-22000000D01*
X47232000Y-37700000D02*
X48299000Y-36633000D01*
X51500000Y-24000000D02*
X60000000Y-24000000D01*
X62000000Y-22000000D02*
X62000000Y-21000000D01*
X46500000Y-37700000D02*
X47232000Y-37700000D01*
X48299000Y-27201000D02*
X51500000Y-24000000D01*
X48299000Y-36633000D02*
X48299000Y-27201000D01*
%TO.N,IO38*%
X46500000Y-33890000D02*
X45390000Y-33890000D01*
X45390000Y-33890000D02*
X45000000Y-33500000D01*
%TO.N,IO1*%
X47232000Y-23730000D02*
X51840000Y-19122000D01*
X51840000Y-19122000D02*
X51840000Y-18460000D01*
X46500000Y-23730000D02*
X47232000Y-23730000D01*
%TO.N,IO2*%
X53129000Y-17209000D02*
X54380000Y-18460000D01*
X51321818Y-17209000D02*
X52358182Y-17209000D01*
X45350000Y-24350000D02*
X44500000Y-23500000D01*
X46891000Y-21609000D02*
X51291000Y-17209000D01*
X45350000Y-25000000D02*
X45350000Y-24350000D01*
X52358182Y-17209000D02*
X53129000Y-17209000D01*
X45349000Y-21609000D02*
X46891000Y-21609000D01*
X51291000Y-17209000D02*
X51321818Y-17209000D01*
X46500000Y-25000000D02*
X45350000Y-25000000D01*
%TO.N,IO42*%
X56920000Y-18460000D02*
X55068000Y-16608000D01*
X45350000Y-28810000D02*
X46500000Y-28810000D01*
X55068000Y-16608000D02*
X50902050Y-16608000D01*
X50902050Y-16608000D02*
X49755025Y-17755025D01*
X44500000Y-27000000D02*
X44500000Y-27960000D01*
X44500000Y-27960000D02*
X45350000Y-28810000D01*
%TO.N,IO40*%
X42799000Y-28500000D02*
X42799000Y-28799000D01*
X42799000Y-28799000D02*
X45350000Y-31350000D01*
X62000000Y-18460000D02*
X59547000Y-16007000D01*
X50511686Y-16007000D02*
X48000000Y-18518686D01*
X45350000Y-31350000D02*
X46500000Y-31350000D01*
X59547000Y-16007000D02*
X50511686Y-16007000D01*
X48000000Y-18518686D02*
X48000000Y-19000000D01*
%TO.N,IO39*%
X44920000Y-32620000D02*
X44300000Y-32000000D01*
X46500000Y-32620000D02*
X44920000Y-32620000D01*
%TO.N,IO41*%
X59460000Y-18460000D02*
X58960000Y-18460000D01*
X45580000Y-30080000D02*
X46500000Y-30080000D01*
X43500000Y-27500000D02*
X43500000Y-28000000D01*
X43500000Y-28000000D02*
X45580000Y-30080000D01*
X58960000Y-18460000D02*
X57500000Y-17000000D01*
%TD*%
M02*
