M48
; DRILL file {KiCad 9.0.0} date 2025-03-13T15:17:30+1000
; FORMAT={-:-/ absolute / metric / decimal}
; #@! TF.CreationDate,2025-03-13T15:17:30+10:00
; #@! TF.GenerationSoftware,Kicad,Pcbnew,9.0.0
; #@! TF.FileFunction,Plated,1,2,PTH
FMAT,2
METRIC
; #@! TA.AperFunction,Plated,PTH,ViaDrill
T1C0.300
; #@! TA.AperFunction,Plated,PTH,ComponentDrill
T2C0.300
; #@! TA.AperFunction,Plated,PTH,ComponentDrill
T3C0.600
; #@! TA.AperFunction,Plated,PTH,ComponentDrill
T4C1.000
%
G90
G05
T1
X17.5Y-32.5
X19.5Y-39.0
X19.5Y-66.5
X20.5Y-38.5
X21.0Y-40.5
X22.0Y-39.5
X22.15Y-44.0
X23.251Y-65.674
X24.37Y-71.53
X24.5Y-73.0
X25.0Y-46.5
X25.0Y-48.5
X25.16Y-70.34
X25.5Y-69.0
X30.5Y-60.5
X30.5Y-63.5
X31.0Y-29.5
X31.0Y-32.0
X33.5Y-38.5
X33.5Y-42.071
X39.0Y-28.5
X42.799Y-28.5
X43.0Y-24.0
X43.5Y-27.5
X44.3Y-32.0
X44.5Y-23.5
X44.5Y-27.0
X45.0Y-33.5
X45.0Y-35.0
X45.349Y-21.609
X48.0Y-19.0
X49.755Y-17.755
X57.5Y-17.0
T2
X34.85Y-29.48
X34.85Y-30.88
X35.55Y-28.78
X35.55Y-30.18
X35.55Y-31.58
X36.25Y-29.48
X36.25Y-30.88
X36.95Y-28.78
X36.95Y-30.18
X36.95Y-31.58
X37.65Y-29.48
X37.65Y-30.88
T4
X25.6Y-21.92
X25.6Y-24.46
X25.6Y-27.0
X25.6Y-29.54
X25.6Y-32.08
X25.6Y-34.62
X25.6Y-37.16
X25.6Y-39.7
X51.84Y-18.46
X51.84Y-21.0
X54.38Y-18.46
X54.38Y-21.0
X56.92Y-18.46
X56.92Y-21.0
X59.46Y-18.46
X59.46Y-21.0
X62.0Y-18.46
X62.0Y-21.0
T3
G00X17.9Y-62.68
M15
G01X17.1Y-62.68
M16
G05
G00X17.9Y-71.32
M15
G01X17.1Y-71.32
M16
G05
G00X22.23Y-62.68
M15
G01X21.13Y-62.68
M16
G05
G00X22.23Y-71.32
M15
G01X21.13Y-71.32
M16
G05
M30
